<?xml version="1.0" encoding="UTF-8"?>
<svg version="1.1" xmlns="http://www.w3.org/2000/svg" width="640" height="419">
<path d="M0 0 C211.2 0 422.4 0 640 0 C640 138.27 640 276.54 640 419 C428.8 419 217.6 419 0 419 C0 280.73 0 142.46 0 0 Z " fill="#08090B" transform="translate(0,0)"/>
<path d="M0 0 C211.2 0 422.4 0 640 0 C640 138.27 640 276.54 640 419 C428.8 419 217.6 419 0 419 C0 280.73 0 142.46 0 0 Z M54 77 C54 77.66 54 78.32 54 79 C53.113125 79.226875 52.22625 79.45375 51.3125 79.6875 C47.5358773 81.18389767 45.73346231 83.04490561 43 86 C42.01 86.66 41.02 87.32 40 88 C35.53849636 93.98535937 35.44601835 100.16930029 35.54589844 107.37304688 C35.54502228 109.04265976 35.54502228 109.04265976 35.54412842 110.7460022 C35.54690226 114.40390841 35.5779627 118.06098714 35.609375 121.71875 C35.61683984 124.26321976 35.62253162 126.80769528 35.62652588 129.35217285 C35.64020782 135.35153555 35.67169281 141.35054621 35.71192384 147.34976816 C35.75675289 154.18412294 35.77865643 161.01849234 35.79870558 167.85295773 C35.84042926 181.90213424 35.91071139 195.95105097 36 210 C33.99194336 210.21972656 31.98388672 210.43945312 29.97583008 210.65917969 C27.26543254 211.12670903 25.90207117 212.02748175 24 214 C22.98812105 215.65948148 21.9873454 217.32580562 21 219 C19.515 219.99 19.515 219.99 18 221 C16.87160458 224.38518626 16.86558236 226.96306703 16.85282898 230.53300476 C16.84915229 231.1996261 16.8454756 231.86624743 16.8416875 232.55306941 C16.83065616 234.7914909 16.82680775 237.02986595 16.82299805 239.26831055 C16.81673292 240.87151741 16.81008607 242.47472282 16.80308533 244.07792664 C16.78204637 249.34751372 16.77168232 254.6171011 16.76171875 259.88671875 C16.75767097 261.70147021 16.75355405 263.51622152 16.74936867 265.33097267 C16.73031646 273.8579336 16.71608613 282.38488586 16.7077567 290.91186398 C16.69798718 300.75039366 16.67167528 310.58869817 16.63125581 320.42714852 C16.60107825 328.03406708 16.58628622 335.64092115 16.58297569 343.2478984 C16.58062684 347.78994187 16.57168815 352.3317448 16.54651451 356.87372398 C16.52320038 361.14932704 16.51901389 365.42453177 16.52927589 369.70018196 C16.52977057 371.26585593 16.52347011 372.83154972 16.50971985 374.39716339 C16.42936239 384.09249327 16.6879373 391.12056063 23.375 398.6875 C24.674375 399.8321875 24.674375 399.8321875 26 401 C26.51046875 401.45503906 27.0209375 401.91007812 27.546875 402.37890625 C31.34086833 405.67517273 34.0186517 407.12358939 39.01594549 407.12880117 C39.83717293 407.13207336 40.65840036 407.13534555 41.50451347 407.13871691 C42.86011955 407.13649147 42.86011955 407.13649147 44.24311161 407.13422108 C45.68736946 407.13774942 45.68736946 407.13774942 47.16080424 407.14134905 C50.41817282 407.14805686 53.67550167 407.14758029 56.93287659 407.14717102 C59.27947566 407.15046854 61.62607416 407.15419387 63.97267193 407.1583125 C69.76554871 407.16729867 75.55841578 407.17156219 81.35129879 407.17383147 C88.28758022 407.17679103 95.22385148 407.18548702 102.16012759 407.19424575 C118.92753749 407.21510183 135.69494916 407.22556198 152.462369 407.23437535 C160.39323468 407.23858041 168.3240996 407.24380261 176.25496464 407.24905988 C203.39817019 407.26695155 230.54137596 407.28194777 257.68458652 407.28938007 C259.38904858 407.28985483 261.09351063 407.29033072 262.79797268 407.29080774 C263.64324172 407.29104411 264.48851076 407.29128049 265.35939402 407.29152403 C269.64202115 407.29272524 273.92464827 407.29394068 278.20727539 407.29516602 C279.05717948 407.29540617 279.90708356 407.29564632 280.78274232 407.29589374 C308.33884736 407.30378672 335.89490936 407.32721777 363.45099561 407.35972196 C392.5781125 407.39401661 421.7052042 407.41373091 450.83234161 407.41702431 C454.02966083 407.41744186 457.22698004 407.41792142 460.42429924 407.41844749 C461.6052223 407.41863228 461.6052223 407.41863228 462.8100024 407.4188208 C475.48244058 407.42115335 488.15482881 407.43681646 500.82724918 407.45728934 C513.5649507 407.47754121 526.30259218 407.48302768 539.04030681 407.47351871 C545.94170658 407.46876048 552.84295828 407.47039969 559.74433517 407.49028015 C566.06155868 407.5078424 572.37850065 407.50697031 578.69572686 407.49138286 C580.98180608 407.48899624 583.26790444 407.4933846 585.55395431 407.50521151 C588.66164532 407.52029403 591.76833408 407.51068237 594.8760004 407.49498463 C596.20702424 407.51031794 596.20702424 407.51031794 597.56493744 407.52596101 C605.00509148 407.44394966 612.54138831 405.64470147 618.125 400.4375 C620.30485538 398.11622611 620.30485538 398.11622611 620 395 C620.66 395 621.32 395 622 395 C623.71421117 390.5293398 624.2525554 386.82569541 624.26069641 382.04808044 C624.26452196 381.37269558 624.26834751 380.69731073 624.27228898 380.00145966 C624.28256014 377.75146226 624.27863819 375.50172287 624.2746582 373.25170898 C624.27900784 371.63333908 624.28419183 370.01497124 624.29014587 368.39660645 C624.30351742 364.010379 624.30411679 359.62423781 624.30158257 355.23799396 C624.300512 351.5747833 624.30539826 347.91159003 624.310188 344.2483831 C624.32127597 335.60771414 624.32172403 326.96708865 624.31567383 318.32641602 C624.30962849 309.41268856 624.32196087 300.49911873 624.3432439 291.58541816 C624.36085214 283.92922123 624.36686264 276.27307451 624.36360615 268.61685807 C624.36179252 264.04539041 624.36443781 259.4740353 624.37832069 254.90258598 C624.39088243 250.60564605 624.38897072 246.30895238 624.37590981 242.0120163 C624.37354117 240.43541697 624.376289 238.85880039 624.38453293 237.28222084 C624.39497783 235.12950594 624.38691894 232.97762091 624.3742218 230.82493591 C624.37438954 229.62057105 624.37455729 228.41620619 624.37473011 227.17534542 C623.62232751 220.79972179 619.67144361 217.45785542 614.9921875 213.515625 C611.2083509 210.63694147 608.73372408 210 604 210 C604.00691345 209.13115598 604.00691345 209.13115598 604.01396656 208.24475956 C604.12460418 194.12161417 604.20723316 179.99853412 604.25906086 165.87504673 C604.28479353 159.04487564 604.31984842 152.21499462 604.37719727 145.38500977 C604.43253899 138.79089464 604.46144157 132.19700113 604.47438622 125.60264397 C604.48360848 123.08968304 604.50161748 120.57673816 604.52865028 118.06390572 C604.56506766 114.5377688 604.56993976 111.01286768 604.56762695 107.48657227 C604.59459152 105.9361322 604.59459152 105.9361322 604.62210083 104.35437012 C604.57345434 97.47789477 603.16487278 92.54384566 599 87 C597.09300394 85.13085782 595.14457395 83.60843046 593 82 C592.67 81.34 592.34 80.68 592 80 C589.09740189 78.6250851 587.23861295 78 584 78 C584 77.34 584 76.68 584 76 C533.6903389 75.98288932 483.3806776 75.96696772 433.0710144 75.95765686 C432.3269491 75.9575188 431.58288379 75.95738075 430.81627105 75.95723851 C414.64747805 75.95424591 398.47868502 75.95147568 382.30989195 75.94893467 C374.38123655 75.94768728 366.45258116 75.94639074 358.52392578 75.94506836 C357.34040265 75.94487222 357.34040265 75.94487222 356.13296995 75.94467212 C330.53799295 75.94040735 304.94301815 75.93289349 279.34804248 75.92370278 C253.05575146 75.91427877 226.76346166 75.90811655 200.47116897 75.90608501 C196.76139734 75.90579684 193.05162572 75.9054712 189.3418541 75.90512276 C188.61168549 75.90505533 187.88151688 75.90498791 187.12922195 75.90491844 C175.3542084 75.90373466 163.57919861 75.89909104 151.8041866 75.89316797 C139.97924117 75.88729309 128.15429982 75.88511013 116.32935299 75.88649862 C109.91710715 75.8871421 103.50487238 75.88612339 97.09262848 75.88079453 C91.23161179 75.87595905 85.37061372 75.87566235 79.50959621 75.87910111 C77.38036841 75.87952665 75.25113949 75.87823217 73.12191392 75.87511682 C70.24527508 75.87114996 67.36870495 75.87323847 64.49206734 75.87695217 C63.22930679 75.87301165 63.22930679 75.87301165 61.94103593 75.86899152 C57.83855508 75.77757577 57.83855508 75.77757577 54 77 Z " fill="#FEFEFE" transform="translate(0,0)"/>
<path d="M0 0 C0.66 0 1.32 0 2 0 C1.45276317 3.37462715 0.9451 5.08235 -1 8 C-1.81583119 13.56248536 -1.26381982 18.32185826 2 23 C5.7700128 26.33163922 8.80565989 27.67084619 13.91015625 27.38671875 C18.7543692 26.49031299 22.63135321 24.45418721 26 20.875 C28.21805685 14.49808657 27.13671144 7.53609077 26 1 C26.99 1.33 27.98 1.66 29 2 C29 2.66 29 3.32 29 4 C30.11007096 3.99886084 30.11007096 3.99886084 31.2425676 3.99769866 C75.091213 3.95295506 118.93985592 3.91863322 162.78851957 3.89786934 C168.05196556 3.89536789 173.3154115 3.89277925 178.57885742 3.89013672 C179.62672703 3.8896121 180.67459665 3.88908748 181.75421988 3.88854696 C198.72736332 3.87984129 215.70049323 3.86407042 232.67362864 3.84569441 C250.08602267 3.82699988 267.49840961 3.81588422 284.91081327 3.81182301 C295.65758701 3.80907703 306.40432251 3.80039997 317.15108448 3.78416707 C324.51775627 3.77360571 331.88440826 3.77039745 339.25108708 3.77299725 C343.50301499 3.77427985 347.75487601 3.77229574 352.00679207 3.76158905 C355.89986693 3.75185747 359.79282991 3.7513645 363.68590992 3.75820221 C365.09383359 3.75904733 366.50176424 3.75650947 367.90967418 3.75023364 C380.88351283 3.69576764 380.88351283 3.69576764 387 6 C387 6.66 387 7.32 387 8 C388.32 8.66 389.64 9.32 391 10 C391 10.66 391 11.32 391 12 C391.66 12 392.32 12 393 12 C400.38733034 48.93665171 394 87.33185844 394 125 C213.82 125 33.64 125 -152 125 C-152 16 -152 16 -147 8 C-140.23100588 3.19949943 -133.75635036 3.42677973 -125.6550293 3.4699707 C-124.3188222 3.46286258 -122.98262349 3.45399466 -121.6464386 3.44351196 C-118.03928616 3.42001944 -114.43249696 3.42061865 -110.82528663 3.42542672 C-107.04432835 3.4260222 -103.26351289 3.40329951 -99.48262024 3.38285828 C-92.32888558 3.34751753 -85.17525237 3.33144254 -78.02144033 3.3230831 C-67.51103993 3.3100987 -57.00072385 3.27183185 -46.49040699 3.22898388 C-45.71964807 3.22584519 -44.94888914 3.22270651 -44.15477389 3.21947271 C-42.61831057 3.21319272 -41.0818475 3.20684915 -39.54538471 3.20044011 C-35.04530147 3.18237468 -30.54526821 3.17126858 -26.04515207 3.16614306 C-23.92343986 3.16323541 -21.80174441 3.15822622 -19.68003845 3.15237427 C-17.09174318 3.14553078 -14.50343471 3.14235164 -11.91513062 3.14344788 C-10.77824295 3.1394397 -9.64135529 3.13543152 -8.47001648 3.13130188 C-7.48026164 3.1300446 -6.4905068 3.12878733 -5.47075939 3.12749195 C-2.86483508 3.10323408 -2.86483508 3.10323408 0 2 C0 1.34 0 0.68 0 0 Z " fill="#F8F8F8" transform="translate(199,84)"/>
<path d="M0 0 C26.73 0 53.46 0 81 0 C81 0.66 81 1.32 81 2 C81.886875 2.12375 82.77375 2.2475 83.6875 2.375 C86.73786997 2.9505415 89.16877629 3.76587684 92 5 C92.928125 5.37125 93.85625 5.7425 94.8125 6.125 C95.534375 6.41375 96.25625 6.7025 97 7 C97 7.66 97 8.32 97 9 C97.5775 9.2475 98.155 9.495 98.75 9.75 C103.84511136 12.58061742 106.09455074 16.30466318 108.15090942 21.62008667 C109.84797588 28.37547613 109.51013105 35.33734896 109.45528984 42.26465034 C109.43321221 45.17927558 109.43718127 48.092874 109.44776917 51.0075531 C109.46932506 58.24108521 109.45209646 65.47438188 109.42626953 72.70788574 C109.40481202 78.83591259 109.40299003 84.96327534 109.42918587 91.09129143 C109.43351281 93.95042268 109.40897525 96.80837517 109.38365173 99.66737366 C109.18850345 112.20007041 109.18850345 112.20007041 115 123 C118.4623553 126.4623553 122.65425556 126.11503972 127.37850952 126.14663696 C128.061763 126.14618378 128.74501648 126.14573059 129.44897461 126.14526367 C130.54752022 126.15030159 130.54752022 126.15030159 131.66825867 126.15544128 C134.0796378 126.16490931 136.49094721 126.16689219 138.90234375 126.16796875 C140.58476286 126.1711838 142.26718169 126.17454806 143.94960022 126.17805481 C147.47251026 126.1840354 150.99539579 126.18589577 154.51831055 126.18530273 C159.02519328 126.18520108 163.53191858 126.19886155 168.038764 126.21607494 C171.51238218 126.22720973 174.98596244 126.2292215 178.45959663 126.22869301 C180.12092189 126.22987057 181.78224821 126.23427978 183.44355583 126.24202538 C185.76969221 126.25185684 188.09548864 126.24893508 190.42163086 126.24291992 C191.44347473 126.25134918 191.44347473 126.25134918 192.48596191 126.25994873 C197.85445899 126.22479155 202.22592275 125.55678256 206.328125 121.95703125 C208.64135803 117.86563545 208.66962089 114.31660576 208.75 109.6875 C208.77964844 108.85154297 208.80929687 108.01558594 208.83984375 107.15429688 C208.91016107 105.10337515 208.95738973 103.05168438 209 101 C208.26394531 101.34933594 207.52789063 101.69867188 206.76953125 102.05859375 C205.79371094 102.51363281 204.81789063 102.96867187 203.8125 103.4375 C202.84957031 103.88996094 201.88664063 104.34242188 200.89453125 104.80859375 C195.65925346 106.96346517 190.79768555 107.16173648 185.1875 107.125 C184.47916016 107.12306641 183.77082031 107.12113281 183.04101562 107.11914062 C178.27423922 107.0796733 173.69742856 106.78290476 169 106 C169 105.34 169 104.68 169 104 C168.37351562 103.87882812 167.74703125 103.75765625 167.1015625 103.6328125 C166.28429687 103.46523438 165.46703125 103.29765625 164.625 103.125 C163.81289063 102.96257812 163.00078125 102.80015625 162.1640625 102.6328125 C160 102 160 102 158 100 C157.278125 99.71125 156.55625 99.4225 155.8125 99.125 C149.10220266 96.44088106 145.73161302 94.21935503 142 88 C141.175 87.05125 140.35 86.1025 139.5 85.125 C136.62078655 81.7423658 134.81636647 78.03030672 133 74 C132.70996094 73.36449219 132.41992188 72.72898437 132.12109375 72.07421875 C126.3643995 59.08689404 128.15418567 45.08676557 132.80859375 32.0625 C134 29 134 29 135 27 C135.66 27 136.32 27 137 27 C136.8453125 25.948125 136.8453125 25.948125 136.6875 24.875 C137.34457826 18.82987999 143.40141278 14.38680868 147.8203125 10.6015625 C150.62687033 8.53939635 153.4964839 7.19469408 156.7265625 5.921875 C159.12235574 4.99900062 159.12235574 4.99900062 161.74531555 3.51570129 C171.92471864 -1.22483029 184.38303984 -0.28853956 195.42578125 -0.23046875 C196.95037293 -0.22927302 198.47496536 -0.22882462 199.9995575 -0.2290802 C203.16015376 -0.22753213 206.32063403 -0.21936319 209.48120117 -0.20581055 C213.53876168 -0.18863231 217.59619783 -0.18500247 221.65379047 -0.18575573 C224.78577365 -0.18548482 227.91772948 -0.18001951 231.0497036 -0.17275429 C232.54768861 -0.16956974 234.04567672 -0.16760071 235.54366493 -0.16686058 C237.62071755 -0.16470545 239.6976345 -0.15598506 241.7746582 -0.14526367 C243.54665337 -0.13954597 243.54665337 -0.13954597 245.35444641 -0.13371277 C248 0 248 0 249 1 C249.10239241 2.55067823 249.13519462 4.10600322 249.14044189 5.66004944 C249.14615204 6.66797546 249.15186218 7.67590149 249.15774536 8.71437073 C249.15942215 10.38728432 249.15942215 10.38728432 249.16113281 12.09399414 C249.16609772 13.26147186 249.17106262 14.42894958 249.17617798 15.63180542 C249.1883147 18.84499669 249.19575313 22.05815151 249.20018864 25.27136159 C249.20311754 27.28004123 249.20722219 29.28871513 249.21169281 31.29739189 C249.22538021 37.58503477 249.23503846 43.87266455 249.2388947 50.1603213 C249.24336641 57.41172857 249.26086752 64.66294649 249.2898953 71.91429621 C249.31155779 77.52119297 249.32160156 83.12803667 249.32293582 88.7349748 C249.32398142 92.08210162 249.33129152 95.42890985 249.34775543 98.77601814 C249.36483939 102.51757163 249.36292907 106.25866731 249.35644531 110.00024414 C249.3656601 111.10135025 249.37487488 112.20245636 249.3843689 113.33692932 C249.35024722 119.6333353 248.58924001 124.25020154 246 130 C245.649375 130.94488281 245.29875 131.88976562 244.9375 132.86328125 C244.628125 133.67152344 244.31875 134.47976563 244 135.3125 C243.690625 136.13363281 243.38125 136.95476562 243.0625 137.80078125 C241.9673749 140.06752916 240.80154558 141.27990728 239 143 C238.2575 144.546875 238.2575 144.546875 237.5 146.125 C236 149 236 149 233 150 C231.79117904 152.00016466 231.79117904 152.00016466 231 154 C230.34 154 229.68 154 229 154 C228.67 154.99 228.34 155.98 228 157 C226.0390625 158.09765625 226.0390625 158.09765625 223.625 159.0625 C220.78250709 160.21523735 218.57934445 161.28043703 216 163 C214.68 163 213.36 163 212 163 C212 163.66 212 164.32 212 165 C209.25540752 165.91486416 207.66575333 166.12379643 204.84284973 166.12025452 C203.57454063 166.12231651 203.57454063 166.12231651 202.28060913 166.12442017 C201.35632111 166.12082489 200.43203308 166.11722961 199.47973633 166.11352539 C198.01604362 166.11374443 198.01604362 166.11374443 196.52278137 166.1139679 C193.29250884 166.11327038 190.06229373 166.10548545 186.83203125 166.09765625 C184.59429455 166.0957915 182.35655744 166.09436787 180.11882019 166.09336853 C174.22513708 166.08954784 168.33147856 166.07972135 162.43780518 166.06866455 C156.42533704 166.05844081 150.41286494 166.05386884 144.40039062 166.04882812 C132.60024961 166.03809871 120.80012685 166.02102763 109 166 C109 165.34 109 164.68 109 164 C108.02160156 163.85304688 108.02160156 163.85304688 107.0234375 163.703125 C101.37077988 162.73600364 97.44600385 161.66795318 93 158 C92.34 157.01 91.68 156.02 91 155 C90.22785156 154.54625 89.45570313 154.0925 88.66015625 153.625 C80.1026087 148.39748197 75.62474635 139.31416469 73 130 C72.73578247 129.0757019 72.47156494 128.15140381 72.19934082 127.19909668 C70.05170359 118.89690515 69.57134059 110.95675773 69.58930969 102.44422913 C69.59386382 100.09760307 69.57958423 97.75170132 69.56091309 95.40515137 C69.51833223 89.59081497 69.50685526 83.77650126 69.49468994 77.96203613 C69.48314948 73.01629286 69.45959995 68.07089053 69.41999817 63.12528992 C69.40647866 60.82023576 69.41058525 58.51564914 69.41540527 56.21057129 C69.40606614 54.79727585 69.39589769 53.38398557 69.38476562 51.97070312 C69.38271118 50.74194458 69.38065674 49.51318604 69.37854004 48.24719238 C68.88742123 44.03427669 67.23874702 41.59267474 64.6875 38.3125 C59.9909922 34.6596606 54.67084804 34.5499327 49 35 C45.35004869 36.4931619 42.99499955 38.59770875 40.85144043 41.92486572 C38.90895133 46.65910852 39.39571521 52.01750634 39.390625 57.0546875 C39.37408875 58.31137238 39.35755249 59.56805725 39.34051514 60.86282349 C39.30025852 64.18709509 39.2768776 67.51060262 39.26177979 70.83502197 C39.24215296 74.23392026 39.20040361 77.63254365 39.16015625 81.03125 C39.08294497 87.68767496 39.04242894 94.34289917 39 101 C26.13 101 13.26 101 0 101 C0 67.67 0 34.34 0 0 Z " fill="#FAFAFA" transform="translate(327,225)"/>
<path d="M0 0 C23.76 0 47.52 0 72 0 C72 0.66 72 1.32 72 2 C72.72703125 2.01417969 73.4540625 2.02835938 74.203125 2.04296875 C87.6299631 2.67988286 98.08321234 7.98192122 108 17 C109.76032448 19.30125752 110.77169462 21.33867168 112 24 C112.680625 24.78375 113.36125 25.5675 114.0625 26.375 C122.26818165 37.49237514 121.07477075 54.9459663 120 68 C118.67781992 75.04072575 115.37705222 80.31231345 110 85 C109.278125 86.093125 108.55625 87.18625 107.8125 88.3125 C107.214375 89.199375 106.61625 90.08625 106 91 C105.34 91 104.68 91 104 91 C104 91.66 104 92.32 104 93 C97.40657637 99.05566213 90.94708347 102.92143965 82.30078125 105.34375 C80.05530142 105.78268692 80.05530142 105.78268692 79 107 C64.78204826 109.50481026 52.92094643 108.46047322 40 102 C40 116.85 40 131.7 40 147 C26.8 147 13.6 147 0 147 C0 98.49 0 49.98 0 0 Z " fill="#FBFBFB" transform="translate(60,224)"/>
<path d="M0 0 C1.05574219 0.46792969 1.05574219 0.46792969 2.1328125 0.9453125 C4.43461049 2.24549128 5.75484034 3.78009584 7.4375 5.8125 C9.51310392 8.28090638 11.5361489 10.51283808 13.875 12.75 C16.05323647 15.05636803 16.40292689 16.01463446 17 19 C17.46921875 19.37640625 17.9384375 19.7528125 18.421875 20.140625 C20.78418602 22.92394195 21.04590443 26.12410406 21.625 29.625 C22.05594053 34.18336739 22.05594053 34.18336739 24 38 C24.09870264 39.35650952 24.13079113 40.71803081 24.1328125 42.078125 C24.13410156 42.90957031 24.13539063 43.74101562 24.13671875 44.59765625 C24.13285156 45.47292969 24.12898438 46.34820312 24.125 47.25 C24.12886719 48.10980469 24.13273437 48.96960938 24.13671875 49.85546875 C24.13028713 54.02958844 24.05922623 57.93122624 23 62 C22.34 62 21.68 62 21 62 C20.82984375 62.58007812 20.6596875 63.16015625 20.484375 63.7578125 C18.92620928 68.7804105 17.2852928 72.8668897 14 77 C13.34 77 12.68 77 12 77 C11.73832031 77.598125 11.47664063 78.19625 11.20703125 78.8125 C9.92949773 81.12777111 8.72350663 82.33869082 6.6875 84 C6.11386719 84.474375 5.54023438 84.94875 4.94921875 85.4375 C4.30597656 85.953125 3.66273438 86.46875 3 87 C1.85917969 87.98226562 1.85917969 87.98226562 0.6953125 88.984375 C-6.30139409 94.21669471 -15.20814453 98.05502266 -24 97 C-24 97.66 -24 98.32 -24 99 C-42.07448646 99.48222444 -55.57203916 98.13645247 -70.4375 87.125 C-72.15577197 85.85218071 -72.15577197 85.85218071 -74.75 84.375 C-78.08206657 82.3387371 -79.70054331 81.17060344 -80.6875 77.3125 C-80.790625 76.549375 -80.89375 75.78625 -81 75 C-81.99 74.67 -82.98 74.34 -84 74 C-90.55418767 67.3831528 -92.47567547 60.83294919 -92.65356445 51.68359375 C-92.57490118 42.57210067 -91.8819914 33.92784874 -90 25 C-89.34 25 -88.68 25 -88 25 C-87.83371094 23.89785156 -87.83371094 23.89785156 -87.6640625 22.7734375 C-85.3654224 13.17323471 -76.61985358 5.58518995 -68.75 0.3125 C-46.78552002 -13.05197213 -21.99832338 -11.73461827 0 0 Z " fill="#FBFBFB" transform="translate(288,234)"/>
<path d="M0 0 C0.78375 0.00451172 1.5675 0.00902344 2.375 0.01367188 C4.29170014 0.02535907 6.20836048 0.04329092 8.125 0.0625 C8.125 0.7225 8.125 1.3825 8.125 2.0625 C9.02992187 2.15337891 9.02992187 2.15337891 9.953125 2.24609375 C11.15195313 2.37177734 11.15195313 2.37177734 12.375 2.5 C13.55835937 2.62181641 13.55835937 2.62181641 14.765625 2.74609375 C16.94864639 3.03884993 19.0023182 3.48314419 21.125 4.0625 C21.125 4.7225 21.125 5.3825 21.125 6.0625 C23.105 6.7225 25.085 7.3825 27.125 8.0625 C27.125 8.7225 27.125 9.3825 27.125 10.0625 C27.785 10.0625 28.445 10.0625 29.125 10.0625 C30.49573786 11.69854196 31.82555256 13.36928061 33.125 15.0625 C33.60839844 15.51625 34.09179688 15.97 34.58984375 16.4375 C42.61794565 24.93543993 42.125 37.00838406 42.125 47.88671875 C41.71475885 55.84796109 38.51791503 63.47312745 34.125 70.0625 C34.12969206 72.16481241 34.12969206 72.16481241 35.125 74.0625 C35.74375 74.35125 36.3625 74.64 37 74.9375 C40.16691671 76.61410296 40.87983194 78.78574196 42.125 82.0625 C41.8125 84.4375 41.8125 84.4375 41.125 86.0625 C37.66277385 87.12973961 34.48460734 87.16423486 30.875 87.125 C29.79734375 87.11597656 28.7196875 87.10695313 27.609375 87.09765625 C26.37960938 87.08025391 26.37960938 87.08025391 25.125 87.0625 C25.125 86.4025 25.125 85.7425 25.125 85.0625 C21.81527935 82.71811454 19.13489528 83.04594652 15.234375 83.63671875 C12.87062052 84.07893802 12.87062052 84.07893802 9.625 85.125 C-2.2782048 88.15321257 -14.94148003 86.45601472 -25.875 81.0625 C-28.6484375 78.53125 -28.6484375 78.53125 -30.875 76.0625 C-32.0815625 74.9178125 -32.0815625 74.9178125 -33.3125 73.75 C-34.5809375 72.4196875 -34.5809375 72.4196875 -35.875 71.0625 C-36.36097656 70.5571875 -36.84695312 70.051875 -37.34765625 69.53125 C-44.31499493 61.40565809 -47.75650462 49.14108344 -47.16796875 38.515625 C-46.3534007 31.69497522 -45.02908768 24.72346262 -40.875 19.0625 C-39.55181281 18.37591579 -38.21798469 17.70950414 -36.875 17.0625 C-35.44980096 15.55419779 -35.44980096 15.55419779 -34.1875 13.8125 C-25.34948298 3.0997521 -13.3489473 -0.14706467 0 0 Z " fill="#080808" transform="translate(106.875,104.9375)"/>
<path d="M0 0 C0 0.33 0 0.66 0 1 C-3.9226786 1.90523352 -7.66994961 2.15503722 -11.6875 2.3125 C-17.85880513 2.72781391 -23.7234655 3.5658918 -29 7 C-30.28396845 9.03884109 -30.28396845 9.03884109 -31 11 C-30.278125 10.95875 -29.55625 10.9175 -28.8125 10.875 C-26 11 -26 11 -23.6875 11.9375 C-15.91870493 15.0088841 -6.82902023 14.19159331 1.375 14.1875 C2.0363092 14.1882251 2.69761841 14.1889502 3.37896729 14.18969727 C14.03341354 14.18840703 24.46439987 13.59889866 35 12 C35 11.34 35 10.68 35 10 C35.66 10 36.32 10 37 10 C36.505 7.525 36.505 7.525 36 5 C37.32 5.33 38.64 5.66 40 6 C40.625 7.8125 40.625 7.8125 41 10 C40.34 10.99 39.68 11.98 39 13 C38.61484283 15.86878729 38.61484283 15.86878729 38.5 19 C38.22222222 24.66666667 38.22222222 24.66666667 36 28 C35.58939289 30.47876962 35.58939289 30.47876962 35.47265625 33.26953125 C35.37029663 34.84130127 35.37029663 34.84130127 35.26586914 36.44482422 C35.16520142 38.11182373 35.16520142 38.11182373 35.0625 39.8125 C33.30739665 64.7331857 33.30739665 64.7331857 29.4453125 68.52734375 C27.39472971 70.61672135 27.49904756 72.31466751 27.3125 75.1875 C27.24675781 76.08855469 27.18101562 76.98960937 27.11328125 77.91796875 C27.07589844 78.60503906 27.03851563 79.29210937 27 80 C26.01 80.33 25.02 80.66 24 81 C24 81.763125 24 82.52625 24 83.3125 C23 86 23 86 19.7109375 87.6484375 C14.09550075 89.58507532 8.50292606 89.40017789 2.625 89.3125 C1.5525 89.31572266 0.48 89.31894531 -0.625 89.32226562 C-14.55347285 89.22907025 -14.55347285 89.22907025 -20 87 C-22.2053953 84.26421273 -23.06704086 81.35455544 -24 78 C-24.24878906 77.19216064 -24.49757812 76.38432129 -24.75390625 75.55200195 C-26.82066476 68.45022477 -27.81987576 61.47214635 -28.5625 54.125 C-28.78643191 51.93942453 -29.0166692 49.75448379 -29.25390625 47.5703125 C-29.35002197 46.61914551 -29.4461377 45.66797852 -29.54516602 44.68798828 C-30.01756258 41.89620829 -30.89763758 39.59862245 -32 37 C-32.37890625 34.578125 -32.37890625 34.578125 -32.5625 32.25 C-32.60036469 29.3275177 -32.60036469 29.3275177 -34 27 C-34.47930671 23.79463638 -34.87206832 20.58941822 -35.25 17.37109375 C-35.40362705 13.88890725 -35.40362705 13.88890725 -37 11 C-37.04063832 9.33382885 -37.042721 7.66611905 -37 6 C-25.3694423 -0.70993713 -13.03362178 -0.27796824 0 0 Z " fill="#08090B" transform="translate(193,103)"/>
<path d="M0 0 C6.744375 -0.103125 13.48875 -0.20625 20.4375 -0.3125 C22.54825928 -0.35802002 24.65901855 -0.40354004 26.83374023 -0.45043945 C28.53367531 -0.46506204 30.2336281 -0.47779851 31.93359375 -0.48828125 C32.79440552 -0.51386108 33.65521729 -0.53944092 34.54211426 -0.5657959 C41.87728722 -0.57100036 47.5242231 1.71419033 52.88841248 6.78520203 C58.73809888 13.0246332 59.40177813 19.48144242 59.25 27.80078125 C58.81555777 33.36028422 57.72456183 37.40478031 53.5 41.3125 C52.675 41.869375 51.85 42.42625 51 43 C50.484375 43.556875 49.96875 44.11375 49.4375 44.6875 C47.69878222 46.27502493 46.29273506 46.60470085 44 47 C44.66 48.98 45.32 50.96 46 53 C46.66 53 47.32 53 48 53 C51.21105475 56.53216023 53.83976255 60.56946641 56.125 64.75 C57.84694528 67.73470515 59.55046476 69.63493149 62 72 C62.33 72.99 62.66 73.98 63 75 C63.99 75.66 64.98 76.32 66 77 C66 77.99 66 78.98 66 80 C61.72952167 80.14486019 57.45967167 80.23392616 53.1875 80.3125 C51.97255859 80.35439453 50.75761719 80.39628906 49.50585938 80.43945312 C47.76079102 80.46362305 47.76079102 80.46362305 45.98046875 80.48828125 C44.37014771 80.52755737 44.37014771 80.52755737 42.72729492 80.56762695 C40 80 40 80 38.21777344 77.62353516 C37.8159082 76.75776855 37.41404297 75.89200195 37 75 C32.96498619 68.15360233 32.96498619 68.15360233 28.625 61.5 C27 59 27 59 27 57 C25.35 56.67 23.7 56.34 22 56 C22 63.92 22 71.84 22 80 C14.74 80 7.48 80 0 80 C0 53.6 0 27.2 0 0 Z " fill="#080808" transform="translate(322,108)"/>
<path d="M0 0 C6.55875 -0.103125 13.1175 -0.20625 19.875 -0.3125 C21.92444824 -0.35802002 23.97389648 -0.40354004 26.08544922 -0.45043945 C45.04906178 -0.70025118 45.04906178 -0.70025118 51 5 C51.70265752 6.65181556 52.3739264 8.3176641 53 10 C53.66 10.309375 54.32 10.61875 55 10.9375 C57 12 57 12 58.109375 14.625 C59.0635966 18.24099762 59.26625639 21.32759531 59.25 25.0625 C59.25773438 26.84333984 59.25773438 26.84333984 59.265625 28.66015625 C58.94190612 32.73044514 58.11220773 35.65608233 55.5 38.8125 C54 40 54 40 52 40 C51.67 41.32 51.34 42.64 51 44 C50.34 44 49.68 44 49 44 C49 44.66 49 45.32 49 46 C46.03 46.495 46.03 46.495 43 47 C45.13550018 50.69528557 47.48743832 54.09774065 50.0625 57.5 C50.84625 58.54027344 51.63 59.58054688 52.4375 60.65234375 C54.20566555 62.97615946 56.00089255 65.27631984 57.8125 67.56640625 C58.27132568 68.15035156 58.73015137 68.73429687 59.20288086 69.3359375 C60.09580732 70.46985309 60.99489426 71.59894972 61.90063477 72.72265625 C65 76.66539875 65 76.66539875 65 80 C61.04168191 80.02892857 57.08339083 80.04677427 53.125 80.0625 C51.43310547 80.07506836 51.43310547 80.07506836 49.70703125 80.08789062 C48.63066406 80.09111328 47.55429687 80.09433594 46.4453125 80.09765625 C45.45031738 80.10289307 44.45532227 80.10812988 43.43017578 80.11352539 C41 80 41 80 39 79 C37.98152514 77.00934459 36.98482022 75.00751815 36 73 C35.319375 72.01 34.63875 71.02 33.9375 70 C32 67 32 67 30.9375 63.6875 C30.628125 62.800625 30.31875 61.91375 30 61 C28.515 60.505 28.515 60.505 27 60 C25.35179805 57.39757586 25 56.13751221 25 53 C24.34 53 23.68 53 23 53 C23 52.34 23 51.68 23 51 C22.34 51 21.68 51 21 51 C21 60.57 21 70.14 21 80 C14.07 80 7.14 80 0 80 C0 53.6 0 27.2 0 0 Z " fill="#090909" transform="translate(509,108)"/>
<path d="M0 0 C3.95819611 -0.08678303 7.91614934 -0.14031733 11.875 -0.1875 C13.00292969 -0.21263672 14.13085938 -0.23777344 15.29296875 -0.26367188 C16.90751953 -0.27817383 16.90751953 -0.27817383 18.5546875 -0.29296875 C20.04718018 -0.31653442 20.04718018 -0.31653442 21.56982422 -0.34057617 C22.37178223 -0.22818604 23.17374023 -0.1157959 24 0 C26.05882953 3.08824429 26.85195791 5.51567225 27.875 9.0625 C29.35021681 14.00174442 31.03177892 18.73201438 33.0078125 23.48828125 C34.08361675 26.21167547 34.98342485 28.96106451 35.875 31.75 C37.7818529 37.59868717 40.15541132 43.18183781 42.625 48.8125 C43.68834207 51.27752025 44.66565223 53.72251993 45.5625 56.25 C46.67524236 59.33653535 48.07102164 62.20274299 49.5625 65.125 C52.1209804 70.14948561 54 74.28150152 54 80 C46.74 80 39.48 80 32 80 C29.17846859 74.35693719 27.06178271 69.51775172 25.4375 63.5625 C25.0128633 62.06347739 24.58709329 60.56477532 24.16015625 59.06640625 C23.9605127 58.36016113 23.76086914 57.65391602 23.55517578 56.92626953 C22.68662082 53.91268174 21.70044426 50.94525102 20.6796875 47.98046875 C20.18915363 46.55115455 19.71749521 45.11531394 19.2578125 43.67578125 C18.13683819 40.17995929 17.01047256 37.02016938 15.3125 33.75 C13.94169365 30.87783431 13.72337991 29.13502765 14 26 C13.01 26.495 13.01 26.495 12 27 C11.49178315 28.83604355 11.06830305 30.69586417 10.6875 32.5625 C9.7779532 36.48090112 8.94160486 39.50244889 6.5625 42.75 C3.50751418 47.09466546 2.56788377 51.98389874 1.51977539 57.10253906 C0.7531813 60.65995353 -0.1763968 63.55147819 -2.046875 66.69140625 C-3.77131833 69.61261326 -4.61406623 71.59336912 -5.1875 74.875 C-5.92132505 78.92132505 -5.92132505 78.92132505 -7 80 C-8.63472882 80.08700342 -10.27314055 80.10701063 -11.91015625 80.09765625 C-12.89951172 80.09443359 -13.88886719 80.09121094 -14.90820312 80.08789062 C-15.94912109 80.07951172 -16.99003906 80.07113281 -18.0625 80.0625 C-19.10728516 80.05798828 -20.15207031 80.05347656 -21.22851562 80.04882812 C-23.8190666 80.03699913 -26.40950559 80.02051689 -29 80 C-28.36911332 75.2052612 -27.03058086 70.87300095 -25.3125 66.375 C-25.04630859 65.66915771 -24.78011719 64.96331543 -24.50585938 64.23608398 C-22.89016192 60.0433491 -21.08856839 56.04676108 -19 52.0625 C-15.47835972 45.29578804 -13.11794144 38.20432261 -10.68164062 30.99609375 C-9.70243823 28.12863001 -8.66635329 25.28288785 -7.625 22.4375 C-7.30789062 21.56996094 -6.99078125 20.70242187 -6.6640625 19.80859375 C-6.44492188 19.21175781 -6.22578125 18.61492187 -6 18 C-5.34 18 -4.68 18 -4 18 C-3.896875 17.071875 -3.79375 16.14375 -3.6875 15.1875 C-3.21183265 11.78384549 -2.37765237 8.54807461 -1.45703125 5.23828125 C-1.18479736 4.25512939 -0.91256348 3.27197754 -0.63208008 2.2590332 C-0.42349365 1.51355225 -0.21490723 0.76807129 0 0 Z " fill="#070707" transform="translate(262,108)"/>
<path d="M0 0 C14.85 0 29.7 0 45 0 C45 5.61 45 11.22 45 17 C36.75 17 28.5 17 20 17 C20 21.62 20 26.24 20 31 C27.92 31 35.84 31 44 31 C44 36.61 44 42.22 44 48 C36.08 48 28.16 48 20 48 C20 52.95 20 57.9 20 63 C28.25 63 36.5 63 45 63 C45 68.61 45 74.22 45 80 C30.15 80 15.3 80 0 80 C0 53.6 0 27.2 0 0 Z " fill="#050505" transform="translate(456,108)"/>
<path d="M0 0 C19.47 0 38.94 0 59 0 C59 6.27 59 12.54 59 19 C52.4 19 45.8 19 39 19 C39 39.13 39 59.26 39 80 C31.74 80 24.48 80 17 80 C17 59.54 17 39.08 17 18 C11.39 18 5.78 18 0 18 C0 12.06 0 6.12 0 0 Z " fill="#050505" transform="translate(388,108)"/>
<path d="M0 0 C0.84184037 0.00525403 1.68368073 0.01050805 2.55103141 0.01592129 C3.8916849 0.01245976 3.8916849 0.01245976 5.2594223 0.0089283 C8.28781936 0.00358753 11.31600849 0.01264602 14.34439498 0.02150792 C16.52401619 0.02063669 18.70363721 0.01888723 20.88325709 0.01632959 C26.89879589 0.0118359 32.9142641 0.01988736 38.92979389 0.02988571 C45.40698357 0.03848894 51.88416898 0.03560228 58.36136276 0.03408116 C69.59220823 0.03268404 80.82303201 0.03925816 92.05387145 0.05055684 C103.83618814 0.06238002 115.61849559 0.07008653 127.40081817 0.07226247 C128.13267179 0.07239995 128.86452541 0.07253742 129.61855641 0.07267907 C133.3350822 0.07335571 137.051608 0.07395849 140.7681338 0.07453282 C167.11068899 0.07873665 193.4532321 0.09221973 219.79578048 0.11113805 C245.39148295 0.12949882 270.98718212 0.14367001 296.58288985 0.15215367 C297.37148832 0.15241672 298.16008679 0.15267978 298.97258219 0.1529508 C306.89181808 0.15558778 314.811054 0.15813942 322.73028995 0.16062852 C338.86351963 0.16570131 354.9967491 0.17134382 371.12997848 0.17733067 C371.87180205 0.17760525 372.61362562 0.17787983 373.37792869 0.17816273 C422.93827895 0.19657241 472.49862212 0.2283053 522.05896407 0.26201695 C522.05896407 0.59201695 522.05896407 0.92201695 522.05896407 1.26201695 C341.87896407 1.75701695 341.87896407 1.75701695 158.05896407 2.26201695 C158.05896407 2.92201695 158.05896407 3.58201695 158.05896407 4.26201695 C158.67771407 4.34451695 159.29646407 4.42701695 159.93396407 4.51201695 C162.05896407 5.26201695 162.05896407 5.26201695 163.24646407 6.88701695 C165.3849834 13.13807344 166.81094918 22.05882399 164.18787032 28.3518607 C161.32712307 32.78836382 158.18956897 34.78370707 153.05896407 36.26201695 C148.46829882 37.06787338 145.18970045 36.71049753 141.24646407 34.13701695 C137.50373234 31.07788919 135.47152213 28.03646987 134.74646407 23.16045445 C134.41801445 17.18677687 136.078201 13.38520348 139.05896407 8.26201695 C138.39896407 8.26201695 137.73896407 8.26201695 137.05896407 8.26201695 C137.05896407 8.92201695 137.05896407 9.58201695 137.05896407 10.26201695 C133.67677729 12.51680814 132.53671427 12.51377875 128.57548934 12.52030247 C126.86582237 12.53054448 126.86582237 12.53054448 125.12161666 12.54099339 C123.87012832 12.53844044 122.61863998 12.5358875 121.32922775 12.53325719 C119.30715026 12.54128041 117.28507278 12.54930606 115.26299566 12.55742246 C113.08815984 12.56428172 110.91336604 12.56627794 108.73851997 12.5669772 C104.204097 12.56891725 99.66982699 12.58696756 95.13545638 12.60773534 C83.87052003 12.65693671 72.60554202 12.68779314 61.34051925 12.70903844 C52.59026202 12.72556793 43.8401356 12.74840696 35.08996594 12.79205918 C30.58480504 12.81381907 26.07989271 12.8218949 21.57468289 12.81966645 C18.76749084 12.82133617 15.96046026 12.83540329 13.15332633 12.85287923 C11.23653352 12.86112556 9.31969479 12.8545566 7.40289718 12.84751195 C1.37627374 12.8981494 -2.7833161 13.10164221 -7.94103593 16.26201695 C-8.60103593 15.93201695 -9.26103593 15.60201695 -9.94103593 15.26201695 C-3.60474628 9.44138368 1.83492244 9.55447414 10.19861251 9.63433141 C11.51154784 9.62706029 12.82448318 9.61978917 14.17720443 9.61229771 C17.02127095 9.59678498 19.8647478 9.59686752 22.70882827 9.60930127 C27.20505606 9.62889304 31.70076231 9.61361698 36.19696456 9.59384984 C43.3047412 9.56674561 50.41230401 9.56320142 57.52012211 9.56962287 C70.26077177 9.58058262 83.00135811 9.55599532 95.74194199 9.51587522 C100.21281081 9.50279249 104.68348416 9.50155144 109.1543625 9.51000816 C111.26277524 9.51275663 113.37113119 9.51112776 115.47954208 9.50762242 C118.05175647 9.50365523 120.62399602 9.50696851 123.19618636 9.5187766 C124.32610503 9.51483891 125.45602371 9.51090123 126.62018234 9.50684422 C127.60386165 9.50780756 128.58754096 9.50877089 129.60102874 9.50976342 C132.84511968 9.18277676 134.57623195 7.65423681 137.05896407 5.63701695 C139.05896407 4.26201695 139.05896407 4.26201695 142.05896407 4.26201695 C142.05896407 3.27201695 142.05896407 2.28201695 142.05896407 1.26201695 C67.80896407 1.75701695 67.80896407 1.75701695 -7.94103593 2.26201695 C-5.33904983 -0.33996914 -3.54416538 0.02092309 0 0 Z " fill="#737475" transform="translate(61.94103592634201,75.73798304796219)"/>
<path d="M0 0 C5.28 0 10.56 0 16 0 C16 0.66 16 1.32 16 2 C16.5775 2.12375 17.155 2.2475 17.75 2.375 C22.84952056 3.79153349 24.31953462 5.45486306 27 10 C27.99 10.33 28.98 10.66 30 11 C32.93709355 18.42002582 32.95222609 25.15052812 30 32.5625 C29.34861956 34.04846164 28.68729059 35.53030271 28 37 C27.34 37 26.68 37 26 37 C26 37.66 26 38.32 26 39 C24.390625 40.25390625 24.390625 40.25390625 22.25 41.5625 C21.55390625 41.99691406 20.8578125 42.43132812 20.140625 42.87890625 C13.98834777 46.10099305 6.75035394 45.64325122 0 45 C-6.98925157 42.7471752 -10.51320954 37.14109462 -14 31 C-16.09329925 26.8134015 -15.42713135 21.55801812 -15 17 C-14.00453817 14.17866517 -12.79108426 12.48761703 -11 10 C-10.34 8.906875 -9.68 7.81375 -9 6.6875 C-7.0527044 4.07082153 -6.05551786 2.98565092 -3 2 C-2.01 2 -1.02 2 0 2 C0 1.34 0 0.68 0 0 Z " fill="#F6F6F6" transform="translate(96,125)"/>
<path d="M0 0 C0 0.33 0 0.66 0 1 C-3.9226786 1.90523352 -7.66994961 2.15503722 -11.6875 2.3125 C-17.85880513 2.72781391 -23.7234655 3.5658918 -29 7 C-30.28396845 9.03884109 -30.28396845 9.03884109 -31 11 C-30.278125 10.95875 -29.55625 10.9175 -28.8125 10.875 C-26 11 -26 11 -23.6875 11.9375 C-15.91870493 15.0088841 -6.82902023 14.19159331 1.375 14.1875 C2.0363092 14.1882251 2.69761841 14.1889502 3.37896729 14.18969727 C14.03341354 14.18840703 24.46439987 13.59889866 35 12 C35 11.34 35 10.68 35 10 C35.66 10 36.32 10 37 10 C36.505 7.525 36.505 7.525 36 5 C37.32 5.33 38.64 5.66 40 6 C40.625 7.8125 40.625 7.8125 41 10 C40.34 10.99 39.68 11.98 39 13 C38.61484283 15.86878729 38.61484283 15.86878729 38.5 19 C38.22222222 24.66666667 38.22222222 24.66666667 36 28 C35.57301896 30.59370484 35.57301896 30.59370484 35.4375 33.515625 C35.36273438 34.60230469 35.28796875 35.68898437 35.2109375 36.80859375 C35.14132813 37.94425781 35.07171875 39.07992187 35 40.25 C34.15968036 53.77292163 34.15968036 53.77292163 32 60 C31.67 60 31.34 60 31 60 C31.57844055 50.9910961 32.21285782 41.99351805 33 33 C32.01 33.495 32.01 33.495 31 34 C11.2749248 36.2727327 -9.63139369 36.58945819 -29 32 C-29 35.3 -29 38.6 -29 42 C-31.83896087 37.7415587 -32.2702752 35.00139289 -32.71875 29.99609375 C-32.79532012 28.00416869 -32.79532012 28.00416869 -34 27 C-34.47930671 23.79463638 -34.87206832 20.58941822 -35.25 17.37109375 C-35.40362705 13.88890725 -35.40362705 13.88890725 -37 11 C-37.04063832 9.33382885 -37.042721 7.66611905 -37 6 C-25.3694423 -0.70993713 -13.03362178 -0.27796824 0 0 Z " fill="#08090B" transform="translate(193,103)"/>
<path d="M0 0 C0.98226562 0.00257813 1.96453125 0.00515625 2.9765625 0.0078125 C4.44222656 0.00394531 4.44222656 0.00394531 5.9375 0 C8.6015625 0.1328125 8.6015625 0.1328125 11.6015625 1.1328125 C11.6015625 1.7928125 11.6015625 2.4528125 11.6015625 3.1328125 C12.9215625 3.1328125 14.2415625 3.1328125 15.6015625 3.1328125 C18.1640625 5.4453125 18.1640625 5.4453125 20.6015625 8.1328125 C21.1584375 8.6484375 21.7153125 9.1640625 22.2890625 9.6953125 C25.86487691 13.61168067 25.82251505 17.20137455 25.7265625 22.3828125 C25.70851563 23.64609375 25.69046875 24.909375 25.671875 26.2109375 C25.64867187 27.17515625 25.62546875 28.139375 25.6015625 29.1328125 C24.9415625 29.1328125 24.2815625 29.1328125 23.6015625 29.1328125 C23.5190625 30.0609375 23.4365625 30.9890625 23.3515625 31.9453125 C22.47951084 35.65153206 21.66645059 36.12147969 18.6015625 38.1328125 C18.2715625 39.1228125 17.9415625 40.1128125 17.6015625 41.1328125 C10.07100848 44.96913247 2.4644798 44.94329872 -5.7734375 43.5703125 C-9.01625569 41.79448349 -10.85729899 39.59326309 -13.1015625 36.69140625 C-14.33455375 34.99746409 -14.33455375 34.99746409 -16.3984375 34.1328125 C-19.73951335 26.7081995 -18.9984058 19.01150736 -16.51171875 11.43359375 C-14.17911322 6.61287566 -10.28806816 3.99546998 -5.5234375 1.8203125 C-4.8221875 1.5934375 -4.1209375 1.3665625 -3.3984375 1.1328125 C-2.3984375 0.1328125 -2.3984375 0.1328125 0 0 Z " fill="#141516" transform="translate(512.3984375,255.8671875)"/>
<path d="M0 0 C2.61718742 2.36185206 5.13588641 4.75471811 7.5625 7.3125 C8.14 7.84875 8.7175 8.385 9.3125 8.9375 C12.57241896 12.52341086 11.87979319 17.74597006 11.86328125 22.28125 C11.43989533 26.54810026 10.05976382 28.87876224 7.5625 32.3125 C6.9025 32.3125 6.2425 32.3125 5.5625 32.3125 C4.9025 33.9625 4.2425 35.6125 3.5625 37.3125 C2.5725 37.3125 1.5825 37.3125 0.5625 37.3125 C0.5625 37.9725 0.5625 38.6325 0.5625 39.3125 C-3.04075874 41.56229588 -6.11760034 41.61146807 -10.3125 41.625 C-11.50617188 41.64175781 -12.69984375 41.65851563 -13.9296875 41.67578125 C-20.36058175 41.0097755 -24.84116043 37.70455781 -29.4375 33.3125 C-32.1675832 28.81816491 -32.8240019 25.48136525 -32.75 20.25 C-32.74613281 19.06277344 -32.74226563 17.87554687 -32.73828125 16.65234375 C-32.44695988 13.41754156 -31.81796559 11.22457705 -30.4375 8.3125 C-29.963125 7.301875 -29.48875 6.29125 -29 5.25 C-22.33462322 -2.39079777 -8.99468658 -4.41557341 0 0 Z " fill="#121315" transform="translate(131.4375,258.6875)"/>
<path d="M0 0 C4.77394481 0.57024922 7.69904184 1.83159684 11.6953125 4.44140625 C11.6953125 5.10140625 11.6953125 5.76140625 11.6953125 6.44140625 C12.6853125 6.77140625 13.6753125 7.10140625 14.6953125 7.44140625 C18.5102789 12.78235921 19.08474188 17.35907843 19.1328125 23.75390625 C19.14272217 24.45974854 19.15263184 25.16559082 19.1628418 25.89282227 C19.07870622 30.9427728 19.07870622 30.9427728 17.34375 33.19921875 C16.79976563 33.60914063 16.25578125 34.0190625 15.6953125 34.44140625 C14.75371327 35.6256585 13.81630495 36.81325334 12.8828125 38.00390625 C9.27439948 42.16543368 6.45082535 43.08199153 1 43.79296875 C-6.27895049 44.29560727 -10.44982624 42.82955291 -16.24609375 38.4609375 C-18.47297296 36.27631406 -19.83322604 34.1838692 -21.3046875 31.44140625 C-21.68496094 30.80589844 -22.06523437 30.17039062 -22.45703125 29.515625 C-24.41272733 24.73002769 -24.08212586 19.46530718 -23.3046875 14.44140625 C-21.46135306 10.89454082 -19.13207629 8.24145086 -16.3046875 5.44140625 C-15.551875 4.54550781 -14.7990625 3.64960938 -14.0234375 2.7265625 C-9.62876932 -0.96723187 -5.51652674 -0.16733105 0 0 Z " fill="#191A1C" transform="translate(256.3046875,256.55859375)"/>
<path d="M0 0 C0.66 0.33 1.32 0.66 2 1 C2.93718283 3.81154848 3.12558736 5.50901664 3.12698364 8.41616821 C3.12980347 9.31916153 3.13262329 10.22215485 3.13552856 11.1525116 C3.13350433 12.14068375 3.1314801 13.1288559 3.12939453 14.14697266 C3.13114685 15.18943649 3.13289917 16.23190033 3.13470459 17.30595398 C3.13911328 20.75867365 3.13618897 24.21134229 3.1328125 27.6640625 C3.13348572 30.05634572 3.13445589 32.44862888 3.13571167 34.84091187 C3.13718723 39.85618745 3.13503824 44.87144523 3.13037109 49.88671875 C3.12466775 56.33119431 3.12795755 62.77562827 3.13394356 69.22010231 C3.13754775 74.15955929 3.13641135 79.09900632 3.13381577 84.03846359 C3.13314642 86.41564311 3.13397518 88.79282351 3.13629532 91.17000198 C3.13882018 94.48396468 3.13498389 97.79785885 3.12939453 101.11181641 C3.13141876 102.10403702 3.13344299 103.09625763 3.13552856 104.11854553 C3.13270874 105.0158992 3.12988892 105.91325287 3.12698364 106.83779907 C3.12660662 107.62203562 3.12622959 108.40627216 3.12584114 109.21427345 C3 111 3 111 2 112 C-0.89636524 112.0990545 -3.76891256 112.1317455 -6.66574955 112.12304783 C-7.5904438 112.12420167 -8.51513805 112.12535552 -9.46785334 112.12654433 C-12.60741634 112.12921902 -15.7469294 112.12468187 -18.88648987 112.12025452 C-21.14361885 112.12069004 -23.40074777 112.12156461 -25.65787643 112.12284368 C-31.89228435 112.12509226 -38.12667526 112.12106243 -44.361081 112.11606562 C-50.38390682 112.11220734 -56.40673074 112.1130248 -62.42955729 112.11374746 C-74.75567378 112.1150635 -87.08178492 112.11171186 -99.40789986 112.10573006 C-111.6180785 112.09981966 -123.82825492 112.09596545 -136.03843498 112.09487724 C-136.79669793 112.0948085 -137.55496088 112.09473976 -138.33620149 112.09466894 C-142.1867971 112.09433062 -146.03739271 112.09402923 -149.88798832 112.09374207 C-177.18501131 112.09163982 -204.48203139 112.08489736 -231.77905273 112.07543945 C-258.30314112 112.06625994 -284.82722871 112.05917392 -311.35131836 112.05493164 C-312.16843542 112.05480011 -312.98555247 112.05466859 -313.82743066 112.05453308 C-322.03301079 112.05321459 -330.23859093 112.05193877 -338.44417107 112.05069422 C-355.16093648 112.04815778 -371.87770183 112.04533653 -388.59446716 112.04234314 C-389.74746489 112.0421372 -389.74746489 112.0421372 -390.9237555 112.04192711 C-442.2825049 112.03272135 -493.64125261 112.01685482 -545 112 C-545 111.34 -545 110.68 -545 110 C-364.82 110 -184.64 110 1 110 C0.67 73.7 0.34 37.4 0 0 Z " fill="#3A3A3C" transform="translate(592,99)"/>
<path d="M0 0 C0.95234482 0.16246214 1.90468965 0.32492428 2.8858934 0.49230951 C7.53466859 1.15128978 12.13787463 1.13669317 16.82570553 1.12304783 C17.80290893 1.12420167 18.78011234 1.12535552 19.78692797 1.12654433 C23.06898288 1.12919608 26.35098897 1.12470066 29.63304138 1.12025452 C32.0067183 1.12069051 34.38039516 1.12156594 36.75407177 1.12284368 C41.91869348 1.12461518 47.0833048 1.12327743 52.2479248 1.11920547 C59.9275116 1.11316748 67.60709112 1.11286995 75.28667986 1.11374746 C88.20531214 1.11506109 101.12393932 1.111721 114.04257011 1.10573006 C126.83391788 1.09981335 139.62526351 1.09596417 152.41661263 1.09487724 C153.2118945 1.0948085 154.00717637 1.09473976 154.8265577 1.09466894 C158.86538077 1.09433061 162.90420384 1.09402922 166.94302691 1.09374207 C195.55113072 1.09164157 224.15923174 1.08490397 252.76733398 1.07543945 C280.55997706 1.06625533 308.35261938 1.05917156 336.14526367 1.05493164 C337.00193108 1.05480011 337.85859849 1.05466859 338.74122552 1.05453308 C347.34421973 1.05321456 355.94721395 1.05193874 364.55020817 1.05069422 C382.07555081 1.04815799 399.6008934 1.04533674 417.12623596 1.04234314 C417.93202557 1.04220585 418.73781519 1.04206856 419.56802267 1.04192711 C473.37868295 1.03272621 527.18934164 1.01686018 581 1 C580 3 580 3 578.19654667 3.61702184 C576.0317017 3.99447266 574.05106473 4.12605546 571.85525334 4.1276505 C571.03075371 4.13066647 570.20625409 4.13368244 569.35676962 4.1367898 C568.00338898 4.13413559 568.00338898 4.13413559 566.62266731 4.13142776 C565.65747651 4.1334804 564.69228572 4.13553303 563.69784671 4.13764787 C560.43853598 4.14333717 557.17926724 4.14185824 553.91995239 4.14044189 C551.56963962 4.14302441 549.21932729 4.14603725 546.86901557 4.1494453 C541.07096468 4.15668259 535.27292483 4.15921856 529.47486975 4.15977435 C522.53178465 4.16068758 515.58870809 4.16735384 508.64562667 4.17412117 C491.86483813 4.19018672 475.08405049 4.19608479 458.30325564 4.20086992 C450.36749516 4.203205 442.4317354 4.20680752 434.49597548 4.2105653 C407.33932897 4.2234004 380.18268287 4.23412033 353.0260334 4.2375679 C351.32109546 4.23778954 349.61615753 4.23801132 347.91121959 4.23823325 C346.20213353 4.23845389 344.49304747 4.23867438 342.78396142 4.2388947 C339.35516047 4.23933726 335.92635953 4.23978437 332.49755859 4.24023438 C331.22234224 4.24039846 331.22234224 4.24039846 329.92136394 4.24056586 C302.34399133 4.24419798 274.76664498 4.26012409 247.18928243 4.28342474 C218.04306486 4.308006 188.89686231 4.32173992 159.75063407 4.32293582 C156.55284047 4.32310728 153.35504687 4.32332271 150.15725327 4.32357025 C148.97614541 4.3236539 148.97614541 4.3236539 147.7711768 4.32373925 C135.08592636 4.32489108 122.40070282 4.33592419 109.71546148 4.35045731 C96.97235623 4.36480461 84.22928558 4.36806928 71.48617448 4.36001733 C64.57921312 4.35594671 57.67233459 4.3567063 50.76538467 4.37107468 C44.44783318 4.38374109 38.13044132 4.3826803 31.81289028 4.37048396 C29.52220341 4.36851433 27.23150551 4.37166322 24.94083418 4.38032833 C21.83669812 4.39133115 18.73313444 4.38399653 15.62901497 4.3719368 C14.73144354 4.37953199 13.83387211 4.38712718 12.90910155 4.39495254 C7.83879155 4.35217704 4.43922194 3.73358155 0 1 C0 0.67 0 0.34 0 0 Z " fill="#636466" transform="translate(29,403)"/>
<path d="M0 0 C0.33 0 0.66 0 1 0 C1.66 2.97 2.32 5.94 3 9 C19.92638666 12.0380694 38.13203415 12.68986753 55 9 C55.19294408 13.82360189 54.75747614 17.49646738 53 22 C52.34 22 51.68 22 51 22 C51 22.763125 51 23.52625 51 24.3125 C50 27 50 27 46.7109375 28.6484375 C41.09550075 30.58507532 35.50292606 30.40017789 29.625 30.3125 C28.5525 30.31572266 27.48 30.31894531 26.375 30.32226562 C12.44652715 30.22907025 12.44652715 30.22907025 7 28 C4.85787677 25.18306074 3.95016871 22.38843231 3 19 C2.70480469 18.08992188 2.40960938 17.17984375 2.10546875 16.2421875 C0.4032627 10.6614389 -0.32950289 5.82121767 0 0 Z " fill="#101011" transform="translate(166,162)"/>
<path d="M0 0 C0 0.33 0 0.66 0 1 C-3.9226786 1.90523352 -7.66994961 2.15503722 -11.6875 2.3125 C-17.85880513 2.72781391 -23.7234655 3.5658918 -29 7 C-30.28396845 9.03884109 -30.28396845 9.03884109 -31 11 C-30.278125 10.95875 -29.55625 10.9175 -28.8125 10.875 C-26 11 -26 11 -23.6875 11.9375 C-15.91870493 15.0088841 -6.82902023 14.19159331 1.375 14.1875 C2.0363092 14.1882251 2.69761841 14.1889502 3.37896729 14.18969727 C14.03341354 14.18840703 24.46439987 13.59889866 35 12 C35 11.34 35 10.68 35 10 C35.66 10 36.32 10 37 10 C36.505 7.525 36.505 7.525 36 5 C37.32 5.33 38.64 5.66 40 6 C40.625 7.8125 40.625 7.8125 41 10 C40.34 10.99 39.68 11.98 39 13 C38.61484283 15.86878729 38.61484283 15.86878729 38.5 19 C38.22222222 24.66666667 38.22222222 24.66666667 36 28 C35.57301896 30.59370484 35.57301896 30.59370484 35.4375 33.515625 C35.36273438 34.60230469 35.28796875 35.68898437 35.2109375 36.80859375 C35.14132813 37.94425781 35.07171875 39.07992187 35 40.25 C34.15968036 53.77292163 34.15968036 53.77292163 32 60 C31.67 60 31.34 60 31 60 C31.57844055 50.9910961 32.21285782 41.99351805 33 33 C32.01 33.495 32.01 33.495 31 34 C11.2749248 36.2727327 -9.63139369 36.58945819 -29 32 C-29 35.3 -29 38.6 -29 42 C-31.83896087 37.7415587 -32.2702752 35.00139289 -32.71875 29.99609375 C-32.79532012 28.00416869 -32.79532012 28.00416869 -34 27 C-34.47930671 23.79463638 -34.87206832 20.58941822 -35.25 17.37109375 C-35.40362705 13.88890725 -35.40362705 13.88890725 -37 11 C-37.04063832 9.33382885 -37.042721 7.66611905 -37 6 C-25.3694423 -0.70993713 -13.03362178 -0.27796824 0 0 Z M-34 10 C-33.94000853 12.60662951 -33.85303451 15.20751889 -33.75 17.8125 C-33.73582031 18.55048828 -33.72164062 19.28847656 -33.70703125 20.04882812 C-33.5649305 23.18925478 -33.45045319 25.43034291 -31.46484375 27.94140625 C-27.99925171 29.42979839 -24.52977775 29.78796682 -20.8125 30.125 C-13.10641399 30.89358601 -13.10641399 30.89358601 -12 32 C-7.80232071 32.24569602 -3.59813176 32.22868732 0.60595703 32.24023438 C2.69997527 32.24977215 4.79293848 32.28069323 6.88671875 32.3125 C15.59517923 32.37926124 23.58371506 31.39793593 32 29 C32 28.34 32 27.68 32 27 C33.32 26.67 34.64 26.34 36 26 C36.495 19.565 36.495 19.565 37 13 C36.06833008 13.14074951 35.13666016 13.28149902 34.17675781 13.42651367 C24.1665183 14.85487031 14.32310933 15.34280892 4.21679688 15.31567383 C1.73784484 15.31248436 -0.73994156 15.33619847 -3.21875 15.36132812 C-14.19648154 15.40495133 -23.75170034 14.23184494 -34 10 Z " fill="#767778" transform="translate(193,103)"/>
<path d="M0 0 C23.76 0 47.52 0 72 0 C72 0.66 72 1.32 72 2 C48.9 2 25.8 2 2 2 C2 49.52 2 97.04 2 146 C14.21 146 26.42 146 39 146 C39 131.15 39 116.3 39 101 C40.65 101 42.3 101 44 101 C43.67 101.66 43.34 102.32 43 103 C42.01 102.67 41.02 102.34 40 102 C40 116.85 40 131.7 40 147 C26.8 147 13.6 147 0 147 C0 98.49 0 49.98 0 0 Z " fill="#9C9D9C" transform="translate(60,224)"/>
<path d="M0 0 C0.33 0 0.66 0 1 0 C1 57.09 1 114.18 1 173 C-2.48903177 169.51096823 -2.12714659 166.14744439 -2.13371277 161.44007874 C-2.13597833 160.77063514 -2.13824388 160.10119154 -2.14057809 159.41146177 C-2.14691855 157.1636947 -2.1460887 154.91598792 -2.14526367 152.66821289 C-2.14825511 151.05851666 -2.15165761 149.44882115 -2.15544128 147.83912659 C-2.16428649 143.46313833 -2.1666196 139.08716962 -2.16725707 134.7111733 C-2.16820581 131.06045049 -2.17188367 127.40973226 -2.17542917 123.75901121 C-2.18357553 115.14768807 -2.18601322 106.53637538 -2.18530273 97.92504883 C-2.18470172 89.03582585 -2.19525784 80.14666351 -2.2110464 71.25745589 C-2.2241118 63.63021688 -2.22948706 56.00299773 -2.22884732 48.37574762 C-2.22859206 43.81826201 -2.23145873 39.26083028 -2.24202538 34.70335579 C-2.25168968 30.41799899 -2.25179704 26.13274779 -2.24450874 21.84738731 C-2.24346086 20.27359488 -2.24583785 18.69979593 -2.2518692 17.12601471 C-2.25956336 14.97951972 -2.25496168 12.83339175 -2.24723816 10.68690491 C-2.24778293 9.48509614 -2.24832769 8.28328737 -2.24888897 7.04506016 C-2.01016961 4.12442125 -1.53119702 2.46047875 0 0 Z " fill="#4C4D4F" transform="translate(19,220)"/>
<path d="M0 0 C0.73049561 -0.00175232 1.46099121 -0.00350464 2.21362305 -0.00531006 C4.62201327 -0.00970254 7.03032977 -0.00680067 9.4387207 -0.00341797 C11.11212681 -0.00409154 12.78553283 -0.00506201 14.4589386 -0.00631714 C17.96173028 -0.0077904 21.46449644 -0.00565067 24.96728516 -0.00097656 C29.46679803 0.00473374 33.96625142 0.00143117 38.46576214 -0.00454903 C41.91858879 -0.0081534 45.37140122 -0.00701686 48.82422829 -0.00442123 C50.48409851 -0.00375231 52.14397 -0.0045792 53.80383873 -0.00690079 C56.11665679 -0.00942672 58.42937678 -0.00558821 60.7421875 0 C62.71930977 0.00119339 62.71930977 0.00119339 64.7363739 0.00241089 C67.67700195 0.12939453 67.67700195 0.12939453 68.67700195 1.12939453 C68.77721757 2.68095385 68.80775854 4.23706524 68.81071472 5.79185486 C68.8171122 7.3041291 68.8171122 7.3041291 68.82363892 8.84695435 C68.82295914 10.51998123 68.82295914 10.51998123 68.82226562 12.22680664 C68.82562424 13.39416855 68.82898285 14.56153046 68.83244324 15.76426697 C68.84033873 18.97499351 68.84362216 22.18568132 68.84425902 25.39641643 C68.84520656 28.0729795 68.84888307 30.74953631 68.85243112 33.42609698 C68.8605831 39.73890184 68.86301468 46.05169243 68.86230469 52.36450195 C68.86170373 58.88501695 68.87225746 65.40544925 68.88804835 71.92594332 C68.90110695 77.51661061 68.90648929 83.10725082 68.90584928 88.69793326 C68.90559379 92.04031467 68.90847282 95.38262266 68.91902733 98.72498894 C68.92877007 102.45092604 68.92597186 106.17664769 68.91992188 109.90258789 C68.92554138 111.01591492 68.93116089 112.12924194 68.93695068 113.27630615 C68.9327562 114.28730881 68.92856171 115.29831146 68.92424011 116.33995056 C68.92478488 117.22172942 68.92532965 118.10350828 68.92589092 119.01200771 C68.67700195 121.12939453 68.67700195 121.12939453 66.67700195 123.12939453 C66.34700195 83.19939453 66.01700195 43.26939453 65.67700195 2.12939453 C48.90887695 2.09845703 48.90887695 2.09845703 31.80200195 2.06689453 C28.29075684 2.05779053 24.77951172 2.04868652 21.16186523 2.03930664 C17.97532702 2.0359593 17.97532702 2.0359593 14.78878784 2.03395081 C13.38505739 2.03242946 11.98132813 2.02894247 10.5776062 2.02381897 C2.56009477 1.99605449 -5.36154972 2.07287454 -13.32299805 3.12939453 C-9.57514068 -0.61846283 -5.04069786 -0.014888 0 0 Z " fill="#3C3D3E" transform="translate(509.322998046875,223.87060546875)"/>
<path d="M0 0 C3.09799981 2.19126816 3.80352112 3.41056336 5 7 C5.43438914 13.84162896 5.43438914 13.84162896 4.0625 17.5 C0.6446728 19.98569251 -2.93207504 19.58623875 -7 19 C-10.26785533 17.6789521 -11.54455456 16.78076361 -13.3125 13.75 C-14.42831755 9.2867298 -14.94474408 5.67477359 -12.625 1.5625 C-8.55844195 -0.85807027 -4.60956252 -0.77465194 0 0 Z " fill="#F7F7F7" transform="translate(220,86)"/>
<path d="M0 0 C0.89203125 0.01804687 1.7840625 0.03609375 2.703125 0.0546875 C3.71632812 0.08949219 3.71632812 0.08949219 4.75 0.125 C4.75 0.455 4.75 0.785 4.75 1.125 C3.63625 1.3725 2.5225 1.62 1.375 1.875 C-2.18485847 2.75894751 -2.18485847 2.75894751 -3.6875 4.8125 C-4.86558328 9.65573126 -4.41378837 14.32437298 -3.25 19.125 C-2.26 19.455 -1.27 19.785 -0.25 20.125 C0.1625 20.62 0.575 21.115 1 21.625 C3.63955365 23.88747456 6.37270673 23.80638743 9.75 24.125 C8.75 27.125 8.75 27.125 6.6875 28.3125 C2.16935379 29.56220001 -1.89573807 30.2155428 -6.21484375 28.21484375 C-10.2936609 25.53299992 -12.70476424 22.8516035 -14.25 18.125 C-15.05651268 13.16811872 -14.85356876 9.41500927 -12 5.1875 C-8.67537566 0.84701823 -5.36938058 -0.14129949 0 0 Z " fill="#18191A" transform="translate(211.25,82.875)"/>
<path d="M0 0 C0.99 0.33 1.98 0.66 3 1 C2.67 1.99 2.34 2.98 2 4 C1.30462317 4.00238835 0.60924633 4.00477671 -0.10720253 4.00723743 C-17.03348155 4.06639395 -33.95960006 4.14194813 -50.88572121 4.23571491 C-59.07109921 4.28066528 -67.25643378 4.32008168 -75.44189453 4.34643555 C-82.57700761 4.3694218 -89.71198315 4.40282678 -96.84698713 4.44870156 C-100.62433685 4.47262542 -104.40155042 4.49135964 -108.17897415 4.49761391 C-111.73639441 4.50366863 -115.29346636 4.52368203 -118.8507576 4.55427551 C-120.77471106 4.56722473 -122.69874593 4.56548685 -124.6227417 4.5632782 C-130.65421234 4.62889094 -134.83762076 4.83712999 -140 8 C-140.66 7.67 -141.32 7.34 -142 7 C-135.65902671 1.1732877 -130.18383208 1.28221293 -121.81274414 1.34057617 C-120.49498993 1.33009247 -119.17723572 1.31960876 -117.81954956 1.30880737 C-114.2227974 1.28075035 -110.62664342 1.28311646 -107.02981496 1.29110122 C-103.2647779 1.29423369 -99.4999289 1.26917036 -95.73497009 1.24714661 C-88.61301806 1.20974469 -81.49125695 1.19756092 -74.36921638 1.1945222 C-66.25787118 1.18982717 -58.14671674 1.15688965 -50.03545582 1.12162435 C-33.35698191 1.04974181 -16.67862582 1.01318142 0 1 C0 0.67 0 0.34 0 0 Z " fill="#48494A" transform="translate(194,84)"/>
<path d="M0 0 C10.75 -0.125 10.75 -0.125 13 1 C13 1.66 13 2.32 13 3 C13.66 3 14.32 3 15 3 C16.58976443 7.76929329 17.00434669 12.88558592 14.8125 17.5 C10.50322499 21.06629656 5.4474586 20 0 20 C0 13.4 0 6.8 0 0 Z " fill="#FBFBFB" transform="translate(529,124)"/>
<path d="M0 0 C0.94746094 0.47953125 1.89492187 0.9590625 2.87109375 1.453125 C7.53393474 3.44329062 12.04552489 3.60155801 17.0625 3.75 C18.44816162 3.80293213 18.44816162 3.80293213 19.86181641 3.85693359 C29.65884671 4.16548805 39.3223849 3.61293585 49 2 C48.34 2.33 47.68 2.66 47 3 C46.95875 3.78375 46.9175 4.5675 46.875 5.375 C46 8 46 8 42.71875 9.64453125 C37.09970759 11.58376937 31.50717735 11.40024131 25.625 11.3125 C24.5525 11.31572266 23.48 11.31894531 22.375 11.32226562 C15.65470939 11.27730018 9.54526647 10.52399062 3 9 C2.01 6.03 1.02 3.06 0 0 Z " fill="#1D1D1F" transform="translate(170,181)"/>
<path d="M0 0 C2.8100346 1.79363911 4.50940468 3.01880935 6 6 C6.39967133 9.59704193 6.2209028 11.56779887 4.5625 14.8125 C1.02701855 17.83059392 -2.4020957 18.31570118 -7 18 C-9.28125 17.00390625 -9.28125 17.00390625 -11 16 C-11 15.34 -11 14.68 -11 14 C-11.66 14 -12.32 14 -13 14 C-13.28331067 10.29177816 -13.42034243 6.70119701 -13 3 C-9.64101635 -0.67388837 -4.73645743 -0.88987988 0 0 Z " fill="#101010" transform="translate(278,170)"/>
<path d="M0 0 C9.70138889 0 9.70138889 0 14.48046875 3.30859375 C16.38080665 5.4238799 16.64768888 6.6793754 16.8125 9.5 C16.49119567 13.07004816 15.97764987 14.02899477 13.6875 17 C8.73057756 20.68887252 6.80873014 20 0 20 C0 13.4 0 6.8 0 0 Z " fill="#E8E8E8" transform="translate(344,124)"/>
<path d="M0 0 C3.14261413 0.99273726 4.50199346 2.8381295 6.16015625 5.60546875 C7.46678367 8.96350123 7.02259978 11.24250144 5.94140625 14.61328125 C4.44140625 17.05078125 4.44140625 17.05078125 1.94140625 18.61328125 C-2.34320473 19.37726519 -5.79329619 19.32308232 -9.62109375 17.17578125 C-11.78052562 13.32635923 -11.92381449 9.91641448 -11.05859375 5.61328125 C-8.14113591 1.14592394 -5.21849264 -0.34657921 0 0 Z " fill="#EBEBEB" transform="translate(256.05859375,268.38671875)"/>
<path d="M0 0 C0 0.66 0 1.32 0 2 C1.32 2.33 2.64 2.66 4 3 C4.19551338 4.60320974 4.38111983 6.20762986 4.5625 7.8125 C4.66691406 8.70582031 4.77132812 9.59914063 4.87890625 10.51953125 C5 13 5 13 4 16 C1.01902423 18.26554159 -2.33175479 18.55111923 -6.0234375 18.43359375 C-8.87211981 17.80868518 -10.55894623 16.27942401 -12.21484375 13.921875 C-13.73348537 10.20460297 -13.31636377 6.72969735 -12 3 C-8.37979327 -0.51373006 -4.86774721 -0.28633807 0 0 Z " fill="#FAFAFA" transform="translate(520,269)"/>
<path d="M0 0 C0.33 0 0.66 0 1 0 C1 6.27 1 12.54 1 19 C-5.6 19 -12.2 19 -19 19 C-19 39.13 -19 59.26 -19 80 C-26.26 80 -33.52 80 -41 80 C-41 59.54 -41 39.08 -41 18 C-40.67 18 -40.34 18 -40 18 C-40 38.13 -40 58.26 -40 79 C-33.73 79 -27.46 79 -21 79 C-21 58.54 -21 38.08 -21 17 C-14.07 17 -7.14 17 0 17 C0 11.39 0 5.78 0 0 Z " fill="#7C7C7C" transform="translate(446,108)"/>
<path d="M0 0 C2.4375 0.75 2.4375 0.75 4 2 C5.53144573 5.44575289 5.26901967 9.30097951 5 13 C3.625 14.9375 3.625 14.9375 2 16 C1.34 16 0.68 16 0 16 C0 16.66 0 17.32 0 18 C-7.09859155 18.47323944 -7.09859155 18.47323944 -10.5 16.6875 C-12.86914682 12.44277862 -12.98313859 7.73496897 -12 3 C-8.36584436 -0.71385203 -4.89303704 -0.57269633 0 0 Z " fill="#F4F4F4" transform="translate(124,269)"/>
<path d="M0 0 C3.80417096 4.63116464 3.38491737 12.75702024 3.3671875 18.5546875 C2.75162838 22.6540493 0.68300382 24.91454561 -2 28 C-3.64846769 27.55123384 -5.29373455 27.09069512 -6.9375 26.625 C-8.31228516 26.24214844 -8.31228516 26.24214844 -9.71484375 25.8515625 C-12 25 -12 25 -13 23 C-12.22914063 23.03480469 -11.45828125 23.06960937 -10.6640625 23.10546875 C-9.15972656 23.14607422 -9.15972656 23.14607422 -7.625 23.1875 C-6.62726563 23.22230469 -5.62953125 23.25710937 -4.6015625 23.29296875 C-3.31378906 23.14794922 -3.31378906 23.14794922 -2 23 C0.46597251 19.30104124 0.56897128 16.2923863 0 12 C-1.15632746 9.63706998 -2.14983755 7.85016245 -4 6 C-6.01964199 5.92755947 -8.04167124 5.91622812 -10.0625 5.9375 C-11.16722656 5.94652344 -12.27195313 5.95554687 -13.41015625 5.96484375 C-14.26480469 5.97644531 -15.11945313 5.98804687 -16 6 C-15.01 5.01 -14.02 4.02 -13 3 C-16.46941546 3.45822468 -19.67395049 3.89131683 -23 5 C-23 4.34 -23 3.68 -23 3 C-23.66 3 -24.32 3 -25 3 C-25 3.66 -25 4.32 -25 5 C-25.99 5.33 -26.98 5.66 -28 6 C-27.9375 4.25 -27.9375 4.25 -27 2 C-24.65356331 0.46579139 -22.49738314 -0.78866245 -20 -2 C-19.175 -2.433125 -18.35 -2.86625 -17.5 -3.3125 C-11.72690417 -4.90010135 -5.2000603 -2.72209729 0 0 Z " fill="#DADADB" transform="translate(224,81)"/>
<path d="M0 0 C0 0.33 0 0.66 0 1 C-3.9226786 1.90523352 -7.66994961 2.15503722 -11.6875 2.3125 C-17.85880513 2.72781391 -23.7234655 3.5658918 -29 7 C-30.28396845 9.03884109 -30.28396845 9.03884109 -31 11 C-29.35 11 -27.7 11 -26 11 C-25.67 11.66 -25.34 12.32 -25 13 C-26.134375 12.814375 -27.26875 12.62875 -28.4375 12.4375 C-29.613125 12.293125 -30.78875 12.14875 -32 12 C-32.33 12.33 -32.66 12.66 -33 13 C-32.90982004 15.19050021 -32.75333792 17.378466 -32.5625 19.5625 C-32.46066406 20.76003906 -32.35882813 21.95757812 -32.25390625 23.19140625 C-32.17011719 24.11824219 -32.08632812 25.04507813 -32 26 C-30.28929808 26.73794985 -28.57802511 27.47461658 -26.86328125 28.203125 C-25.40204265 28.82805723 -23.94928358 29.47282239 -22.5 30.125 C-19.3671313 31.22150404 -16.28845099 31.61312341 -13 32 C-13 32.33 -13 32.66 -13 33 C-15.10409639 33.02701408 -17.20829178 33.04640223 -19.3125 33.0625 C-20.48425781 33.07410156 -21.65601563 33.08570313 -22.86328125 33.09765625 C-26 33 -26 33 -29 32 C-29 35.3 -29 38.6 -29 42 C-31.83896087 37.7415587 -32.2702752 35.00139289 -32.71875 29.99609375 C-32.79532012 28.00416869 -32.79532012 28.00416869 -34 27 C-34.47930671 23.79463638 -34.87206832 20.58941822 -35.25 17.37109375 C-35.40362705 13.88890725 -35.40362705 13.88890725 -37 11 C-37.04063832 9.33382885 -37.042721 7.66611905 -37 6 C-25.3694423 -0.70993713 -13.03362178 -0.27796824 0 0 Z " fill="#989899" transform="translate(193,103)"/>
<path d="M0 0 C3 2 3 2 4 5 C4.09630943 7.19314784 4.13066279 9.38916752 4.13371277 11.58442688 C4.13597833 12.2565429 4.13824388 12.92865892 4.14057809 13.62114209 C4.14691885 15.87806066 4.14608867 18.1349192 4.14526367 20.3918457 C4.14825515 22.00814899 4.15165765 23.62445155 4.15544128 25.24075317 C4.16428751 29.63547014 4.16661968 34.03016765 4.16725707 38.42489266 C4.168206 42.09282423 4.17188418 45.76075125 4.17542917 49.42868108 C4.18357641 58.08323438 4.18601319 66.73777728 4.18530273 75.39233398 C4.18470214 84.32014362 4.19524968 93.2478928 4.2110464 102.17568713 C4.22412344 109.83947513 4.22948655 117.50324337 4.22884732 125.16704243 C4.22859235 129.74471262 4.23144329 134.3223291 4.24202538 138.89998817 C4.25170887 143.20669117 4.2517838 147.51328918 4.24450874 151.81999588 C4.24346315 153.39939846 4.24582428 154.97880758 4.2518692 156.55819893 C4.25959599 158.71712989 4.25493994 160.87569892 4.24723816 163.03462219 C4.24778293 164.24196172 4.24832769 165.44930124 4.24888897 166.69322681 C3.99280632 170.09557622 3.21871147 172.82535893 2 176 C0.89378747 172.6813624 1.17429459 172.20474733 2 169 C2.09376323 166.85158924 2.13059486 164.70047189 2.13371277 162.55001831 C2.13597833 161.90437144 2.13824388 161.25872458 2.14057809 160.59351265 C2.14690356 158.43195244 2.14608965 156.27045516 2.14526367 154.10888672 C2.14825619 152.55803852 2.15165893 151.00719107 2.15544128 149.4563446 C2.16427898 145.2432305 2.16661938 141.0301367 2.16725707 136.81701422 C2.16796804 134.18231972 2.17010331 131.54763038 2.17275429 128.91293716 C2.18200899 119.71376467 2.18608927 110.51460668 2.18530273 101.31542969 C2.18470284 92.75406165 2.19523696 84.19275681 2.2110464 75.63140476 C2.22414894 68.27241466 2.22948545 60.91344514 2.22884732 53.55444348 C2.22859301 49.16333682 2.23140704 44.77228625 2.24202538 40.38119125 C2.25175135 36.24600338 2.25175486 32.11092466 2.24450874 27.9757328 C2.24346827 26.46412432 2.24579362 24.95250888 2.2518692 23.44091225 C2.28196768 15.42859818 2.04329241 7.79615288 0 0 Z " fill="#393A3C" transform="translate(620,219)"/>
<path d="M0 0 C0.33 0 0.66 0 1 0 C1.66 2.97 2.32 5.94 3 9 C19.92638666 12.0380694 38.13203415 12.68986753 55 9 C55 11.31 55 13.62 55 16 C54.505 14.515 54.505 14.515 54 13 C53.29109619 13.14147461 52.58219238 13.28294922 51.85180664 13.42871094 C43.98530608 14.88374184 36.42618334 15.30431399 28.4375 15.25 C27.29603516 15.25773438 26.15457031 15.26546875 24.97851562 15.2734375 C17.77589208 15.25698376 11.03275272 14.55908519 4 13 C4 14.98 4 16.96 4 19 C3.67 19 3.34 19 3 19 C0.99134292 12.49577707 -0.38614349 6.8218683 0 0 Z " fill="#6E6F70" transform="translate(166,162)"/>
<path d="M0 0 C0.33 0 0.66 0 1 0 C1 26.07 1 52.14 1 79 C7.27 79 13.54 79 20 79 C20 69.43 20 59.86 20 50 C20.99 50 21.98 50 23 50 C26 54.22222222 26 54.22222222 26 57 C24.68 56.67 23.36 56.34 22 56 C22 63.92 22 71.84 22 80 C14.74 80 7.48 80 0 80 C0 53.6 0 27.2 0 0 Z " fill="#707070" transform="translate(322,108)"/>
<path d="M0 0 C48.18 0 96.36 0 146 0 C146 0.99 146 1.98 146 3 C145.01 3 144.02 3 143 3 C143 2.34 143 1.68 143 1 C95.81 1 48.62 1 0 1 C0 0.67 0 0.34 0 0 Z " fill="#2B2C2D" transform="translate(58,77)"/>
<path d="M0 0 C0.94746094 0.47953125 1.89492187 0.9590625 2.87109375 1.453125 C7.53393474 3.44329062 12.04552489 3.60155801 17.0625 3.75 C18.44816162 3.80293213 18.44816162 3.80293213 19.86181641 3.85693359 C29.65884671 4.16548805 39.3223849 3.61293585 49 2 C48.34 2.33 47.68 2.66 47 3 C46.34786708 5.02463255 46.34786708 5.02463255 46 7 C40.66146176 7.0247366 35.32295697 7.0428774 29.984375 7.05493164 C28.16861388 7.05995741 26.3528568 7.06677903 24.53710938 7.07543945 C21.9257711 7.08758189 19.31448638 7.09324591 16.703125 7.09765625 C15.89256653 7.10281754 15.08200806 7.10797882 14.24688721 7.11329651 C10.6579583 7.11365296 7.45259214 6.97045947 4 6 C4 6.66 4 7.32 4 8 C4.66 8.33 5.32 8.66 6 9 C5.01 9 4.02 9 3 9 C2.01 6.03 1.02 3.06 0 0 Z " fill="#69696A" transform="translate(170,181)"/>
<path d="M0 0 C1.32 0.33 2.64 0.66 4 1 C4.625 2.8125 4.625 2.8125 5 5 C4.34 5.99 3.68 6.98 3 8 C2.61484283 10.86878729 2.61484283 10.86878729 2.5 14 C2.22222222 19.66666667 2.22222222 19.66666667 0 23 C-2.125 23.6875 -2.125 23.6875 -4 24 C-4 23.34 -4 22.68 -4 22 C-3.01 21.67 -2.02 21.34 -1 21 C-0.34 16.71 0.32 12.42 1 8 C0.030625 8.309375 -0.93875 8.61875 -1.9375 8.9375 C-9.10397519 10.97491141 -16.50276732 11.15711763 -23.91015625 11.16796875 C-25.12776894 11.17296135 -25.12776894 11.17296135 -26.36997986 11.17805481 C-28.07159871 11.18307747 -29.77322726 11.18546459 -31.47485352 11.18530273 C-34.05957312 11.18749751 -36.64387075 11.20572545 -39.22851562 11.22460938 C-40.89322773 11.22754276 -42.55794183 11.22952792 -44.22265625 11.23046875 C-44.98433609 11.23765427 -45.74601593 11.24483978 -46.53077698 11.25224304 C-51.65813797 11.23066701 -56.06650582 10.40882196 -61 9 C-57.58785023 7.99645391 -55.05184701 8.22450705 -51.53417969 8.72900391 C-45.92382474 9.32895516 -40.26112371 9.19031209 -34.625 9.1875 C-33.9636908 9.1882251 -33.30238159 9.1889502 -32.62103271 9.18969727 C-21.96658646 9.18840703 -11.53560013 8.59889866 -1 7 C-1 6.34 -1 5.68 -1 5 C-0.34 5 0.32 5 1 5 C0.505 2.525 0.505 2.525 0 0 Z " fill="#414143" transform="translate(229,108)"/>
<path d="M0 0 C1 1 1 1 1.0625 4.5625 C1.041875 5.696875 1.02125 6.83125 1 8 C-1.64508361 8.36082877 -4.29079547 8.71395352 -6.9375 9.0625 C-7.69224609 9.16626953 -8.44699219 9.27003906 -9.22460938 9.37695312 C-11.14474128 9.62665638 -13.07228144 9.81790281 -15 10 C-15.33 9.67 -15.66 9.34 -16 9 C-15.71269945 6.66055264 -15.38063221 4.3260857 -15 2 C-13.43883181 1.66048381 -11.87598662 1.32867456 -10.3125 1 C-9.44238281 0.814375 -8.57226562 0.62875 -7.67578125 0.4375 C-5.04854682 0.00793758 -2.65624311 -0.14886126 0 0 Z " fill="#0B0B0B" transform="translate(283,23)"/>
<path d="M0 0 C2.10639727 0.0381913 4.21158302 0.15592443 6.3125 0.3125 C7.46363281 0.39113281 8.61476563 0.46976563 9.80078125 0.55078125 C12.70193572 0.95814726 14.52284914 1.50147664 17 3 C17 4.98 17 6.96 17 9 C12.80162995 10.1662139 9.93119937 9.74753875 5.75 8.625 C4.69296875 8.34914063 3.6359375 8.07328125 2.546875 7.7890625 C0 7 0 7 -1 6 C-1.125 3.5 -1.125 3.5 -1 1 C-0.67 0.67 -0.34 0.34 0 0 Z " fill="#181818" transform="translate(302,23)"/>
<path d="M0 0 C0.33 0 0.66 0 1 0 C1.33 35.31 1.66 70.62 2 107 C3.98 107.33 5.96 107.66 8 108 C8 108.66 8 109.32 8 110 C9.32 110.66 10.64 111.32 12 112 C9 112 9 112 0 109 C0 73.03 0 37.06 0 0 Z " fill="#BABABA" transform="translate(604,101)"/>
<path d="M0 0 C1.4540625 0.0309375 1.4540625 0.0309375 2.9375 0.0625 C1.6175 0.3925 0.2975 0.7225 -1.0625 1.0625 C-1.0625 1.7225 -1.0625 2.3825 -1.0625 3.0625 C-3.80709248 3.97736416 -5.39674667 4.18629643 -8.21965027 4.18275452 C-9.48795937 4.18481651 -9.48795937 4.18481651 -10.78189087 4.18692017 C-11.70617889 4.18332489 -12.63046692 4.17972961 -13.58276367 4.17602539 C-15.04645638 4.17624443 -15.04645638 4.17624443 -16.53971863 4.1764679 C-19.76999116 4.17577038 -23.00020627 4.16798545 -26.23046875 4.16015625 C-28.46820545 4.1582915 -30.70594256 4.15686787 -32.94367981 4.15586853 C-38.83736292 4.15204784 -44.73102144 4.14222135 -50.62469482 4.13116455 C-56.63716296 4.12094081 -62.64963506 4.11636884 -68.66210938 4.11132812 C-80.46225039 4.10059871 -92.26237315 4.08352763 -104.0625 4.0625 C-104.0625 3.4025 -104.0625 2.7425 -104.0625 2.0625 C-105.0525 1.7325 -106.0425 1.4025 -107.0625 1.0625 C-105.76100006 1.22483124 -104.45950012 1.38716248 -103.11856079 1.55441284 C-98.45036735 2.07066979 -93.85838883 2.20422891 -89.16552734 2.19189453 C-88.32689651 2.19364685 -87.48826569 2.19539917 -86.6242218 2.19720459 C-83.88227197 2.20156678 -81.14038786 2.19870566 -78.3984375 2.1953125 C-76.47750842 2.19598703 -74.55657942 2.1969583 -72.63565063 2.19821167 C-68.62297752 2.1996809 -64.61032676 2.19755857 -60.59765625 2.19287109 C-55.46551426 2.18716656 -50.3334245 2.19046232 -45.20128441 2.19644356 C-41.23952849 2.20006352 -37.27778489 2.19890411 -33.31602859 2.19631577 C-31.42387511 2.19565087 -29.53172049 2.19645957 -27.63956833 2.19879532 C-24.99324344 2.20134629 -22.34700228 2.19744722 -19.70068359 2.19189453 C-18.92647568 2.19391876 -18.15226776 2.19594299 -17.354599 2.19802856 C-11.27880392 2.17451559 -5.54217501 0.11310561 0 0 Z " fill="#E2E2E2" transform="translate(540.0625,386.9375)"/>
<path d="M0 0 C1 1 1 1 1.0625 3.5625 C1.041875 4.366875 1.02125 5.17125 1 6 C0.34 6 -0.32 6 -1 6 C-1 6.66 -1 7.32 -1 8 C-3.1875 9.4375 -3.1875 9.4375 -6 11 C-7.2684375 11.8971875 -7.2684375 11.8971875 -8.5625 12.8125 C-11 14 -11 14 -13.25 13.4375 C-15.36430894 11.70074623 -15.46569517 10.61275063 -16 8 C-14.28211261 6.65216541 -12.5501903 5.32220557 -10.8125 4 C-9.84957031 3.2575 -8.88664063 2.515 -7.89453125 1.75 C-4.86451677 -0.08191159 -3.4592513 -0.49154548 0 0 Z " fill="#212121" transform="translate(251,36)"/>
<path d="M0 0 C1.47184573 2.94369145 1 5.73383414 1 9 C1.28520405 10.67557379 1.59955696 12.34817245 2 14 C2.99 14.33 3.98 14.66 5 15 C5.4125 15.495 5.825 15.99 6.25 16.5 C8.88955365 18.76247456 11.62270673 18.68138743 15 19 C14 22 14 22 11.9375 23.1875 C7.32832379 24.46237853 3.21923681 25.20173767 -1.0703125 22.87890625 C-2.77153601 21.66325463 -4.39370638 20.33857801 -6 19 C-4 18 -4 18 -1 18 C-1.01160156 16.78441406 -1.02320313 15.56882812 -1.03515625 14.31640625 C-1.04453278 12.73177236 -1.05363313 11.14713682 -1.0625 9.5625 C-1.07087891 8.76005859 -1.07925781 7.95761719 -1.08789062 7.13085938 C-1.0965143 5.08704779 -1.0522815 3.04316098 -1 1 C-0.67 0.67 -0.34 0.34 0 0 Z " fill="#2D2F2F" transform="translate(206,88)"/>
<path d="M0 0 C5.875 1.875 5.875 1.875 7 3 C15.28202294 4.26110946 23.61402444 4.22143464 31.97265625 4.31640625 C33.50679534 4.33701543 35.04092926 4.35801282 36.57505798 4.37937927 C40.58458225 4.43419118 44.59415423 4.48377816 48.60375977 4.53222656 C52.70658541 4.58274293 56.80934302 4.6382706 60.91210938 4.69335938 C68.94134848 4.80043976 76.97064504 4.90199287 85 5 C85 5.33 85 5.66 85 6 C75.19447525 6.04638693 65.38897671 6.08190153 55.58336449 6.10362434 C51.02998345 6.11405139 46.47667761 6.12819091 41.92333984 6.15087891 C37.52725106 6.17264573 33.13123451 6.18457674 28.73509598 6.18975449 C27.05980925 6.19344335 25.38452637 6.20064677 23.70927048 6.21146011 C21.35866573 6.22602612 19.00835763 6.22797582 16.65771484 6.22705078 C15.62408813 6.23783661 15.62408813 6.23783661 14.56958008 6.24884033 C10.34487494 6.23090814 6.89492372 5.65124656 3 4 C1.125 1.875 1.125 1.875 0 0 Z " fill="#57585A" transform="translate(440,346)"/>
<path d="M0 0 C4.37708722 0.51495144 8.06181383 2.10664126 12 4 C13.35439668 6.70879335 13.06501451 9.00933268 13 12 C11.53932801 11.54917531 10.08151968 11.08906463 8.625 10.625 C7.40683594 10.24214844 7.40683594 10.24214844 6.1640625 9.8515625 C4 9 4 9 2 7 C-0.06874034 6.3574765 -0.06874034 6.3574765 -2 6 C-1.125 1.125 -1.125 1.125 0 0 Z " fill="#121212" transform="translate(336,34)"/>
<path d="M0 0 C3.79956589 3.4215986 5.34582665 6.91284113 5.625 12 C5.38133802 17.31183122 3.43510461 20.0496297 0 24 C-1.64846769 23.55123384 -3.29373455 23.09069512 -4.9375 22.625 C-6.31228516 22.24214844 -6.31228516 22.24214844 -7.71484375 21.8515625 C-10 21 -10 21 -11 19 C-10.22914063 19.03480469 -9.45828125 19.06960937 -8.6640625 19.10546875 C-7.15972656 19.14607422 -7.15972656 19.14607422 -5.625 19.1875 C-4.62726563 19.22230469 -3.62953125 19.25710937 -2.6015625 19.29296875 C-1.31378906 19.14794922 -1.31378906 19.14794922 0 19 C2.46597251 15.30104124 2.56897128 12.2923863 2 8 C0.84367254 5.63706998 -0.14983755 3.85016245 -2 2 C-4.01964199 1.92755947 -6.04167124 1.91622812 -8.0625 1.9375 C-9.16722656 1.94652344 -10.27195313 1.95554687 -11.41015625 1.96484375 C-12.26480469 1.97644531 -13.11945313 1.98804687 -14 2 C-9.70086519 -2.59648131 -5.64196504 -2.82098252 0 0 Z " fill="#939393" transform="translate(222,85)"/>
<path d="M0 0 C0.66 0 1.32 0 2 0 C1.75636719 1.86978516 1.75636719 1.86978516 1.5078125 3.77734375 C0.88756274 9.37822101 0.85290751 14.93259696 0.875 20.5625 C0.87113281 21.55185547 0.86726562 22.54121094 0.86328125 23.56054688 C0.87067914 29.1348588 1.1739516 34.48645475 2 40 C2.66 40 3.32 40 4 40 C4.66 42.31 5.32 44.62 6 47 C1.66687884 43.13114182 -1.59857694 39.10520695 -2.35351562 33.26538086 C-2.46624534 30.08460939 -2.446885 26.93185731 -2.375 23.75 C-2.37371094 22.68136719 -2.37242187 21.61273438 -2.37109375 20.51171875 C-2.29430611 13.48991529 -1.48663303 6.86006726 0 0 Z " fill="#BCBDBE" transform="translate(198,259)"/>
<path d="M0 0 C0 0.33 0 0.66 0 1 C-3.9226786 1.90523352 -7.66994961 2.15503722 -11.6875 2.3125 C-17.85880513 2.72781391 -23.7234655 3.5658918 -29 7 C-30.28396845 9.03884109 -30.28396845 9.03884109 -31 11 C-29.35 11 -27.7 11 -26 11 C-25.67 11.66 -25.34 12.32 -25 13 C-31.875 12.125 -31.875 12.125 -33 11 C-33.04092937 8.66702567 -33.04241723 6.33294775 -33 4 C-23.22346939 -1.42380952 -10.82779275 -0.23092449 0 0 Z " fill="#B6B6B6" transform="translate(193,103)"/>
<path d="M0 0 C10.75 -0.125 10.75 -0.125 13 1 C13 1.66 13 2.32 13 3 C13.66 3.33 14.32 3.66 15 4 C14.01 4 13.02 4 12 4 C12 3.34 12 2.68 12 2 C8.7 1.67 5.4 1.34 2 1 C2 6.61 2 12.22 2 18 C4.10375 17.7834375 4.10375 17.7834375 6.25 17.5625 C7.03890625 17.48128906 7.8278125 17.40007812 8.640625 17.31640625 C10.82364639 17.02365007 12.8773182 16.57935581 15 16 C13 19 13 19 10.875 19.6875 C7.26973874 20.07937622 3.62649634 20 0 20 C0 13.4 0 6.8 0 0 Z " fill="#9C9C9C" transform="translate(529,124)"/>
<path d="M0 0 C3.07531556 0.33246655 4.61832506 0.63104756 6.875 2.8125 C8 5 8 5 7.9375 7.125 C6.72986449 9.54027102 5.47128202 10.0433747 3 11 C3 10.34 3 9.68 3 9 C2.38125 8.9175 1.7625 8.835 1.125 8.75 C-1 8 -1 8 -2.25 5.9375 C-2.62125 4.9784375 -2.62125 4.9784375 -3 4 C-2.01 2.68 -1.02 1.36 0 0 Z " fill="#161616" transform="translate(365,51)"/>
<path d="M0 0 C-6.625 4 -6.625 4 -10 4 C-10.05285156 4.54140625 -10.10570312 5.0828125 -10.16015625 5.640625 C-11.39137459 9.09948955 -13.85550814 11.25002822 -16.4375 13.75 C-16.94087891 14.25660156 -17.44425781 14.76320312 -17.96289062 15.28515625 C-21.73280618 19 -21.73280618 19 -24 19 C-23.06623522 12.69708774 -17.83238582 8.59807753 -13.23046875 4.65234375 C-4.14961186 -2.07480593 -4.14961186 -2.07480593 0 0 Z " fill="#C7C8C8" transform="translate(488,231)"/>
<path d="M0 0 C2.86724686 0.57344937 3.8614515 0.8614515 6 3 C5.60495559 5.9628331 4.40182371 8.38326241 3 11 C0.03824877 10.38722388 -1.38058783 9.74627478 -4 8 C-3.67 6.35 -3.34 4.7 -3 3 C-2.01 2.67 -1.02 2.34 0 2 C0 1.34 0 0.68 0 0 Z " fill="#313131" transform="translate(220,58)"/>
<path d="M0 0 C0.94875 0.45375 1.8975 0.9075 2.875 1.375 C13.07017811 5.65495596 24.11613104 5.54946948 35 6 C35 6.33 35 6.66 35 7 C30.58334712 7.02902168 26.16671877 7.04680608 21.75 7.0625 C19.86861328 7.07506836 19.86861328 7.07506836 17.94921875 7.08789062 C16.14130859 7.09272461 16.14130859 7.09272461 14.296875 7.09765625 C12.63156738 7.10551147 12.63156738 7.10551147 10.93261719 7.11352539 C8.42842621 7.01658493 6.3818844 6.73230276 4 6 C4 6.66 4 7.32 4 8 C4.66 8.33 5.32 8.66 6 9 C5.01 9 4.02 9 3 9 C2.01 6.03 1.02 3.06 0 0 Z " fill="#989898" transform="translate(170,181)"/>
<path d="M0 0 C3.65866294 4.32387438 5 8.34923902 5 14 C-2.26 14 -9.52 14 -17 14 C-17 13.34 -17 12.68 -17 12 C-10.73 12 -4.46 12 2 12 C1.34 9.36 0.68 6.72 0 4 C0 2.68 0 1.36 0 0 Z " fill="#454545" transform="translate(311,174)"/>
<path d="M0 0 C0.66 0.33 1.32 0.66 2 1 C1.28385417 2.5625 0.56770833 4.125 -0.1484375 5.6875 C-2.69328304 12.59827321 -3.27072042 18.70276988 -3.125 26 C-3.11146484 27.30517578 -3.11146484 27.30517578 -3.09765625 28.63671875 C-3.07434619 30.7579342 -3.03848579 32.87900562 -3 35 C-7.41374693 28.37937961 -6.73911657 19.90304111 -5.25 12.3125 C-4.13677819 7.8434791 -2.19967025 4.03272879 0 0 Z " fill="#5C5C5C" transform="translate(66,124)"/>
<path d="M0 0 C0.33 0 0.66 0 1 0 C1.66 2.97 2.32 5.94 3 9 C3.71027344 9.13277344 4.42054688 9.26554688 5.15234375 9.40234375 C6.07144531 9.57894531 6.99054688 9.75554687 7.9375 9.9375 C8.85402344 10.11152344 9.77054688 10.28554687 10.71484375 10.46484375 C13 11 13 11 14 12 C15.51469448 12.23192865 17.03754562 12.41215238 18.5625 12.5625 C19.38878906 12.64628906 20.21507812 12.73007813 21.06640625 12.81640625 C21.70449219 12.87699219 22.34257812 12.93757812 23 13 C23 13.33 23 13.66 23 14 C20.95840905 14.0272616 18.91671037 14.04651345 16.875 14.0625 C15.73804688 14.07410156 14.60109375 14.08570313 13.4296875 14.09765625 C10.1870844 14.005327 7.18067388 13.61389906 4 13 C4 14.98 4 16.96 4 19 C3.67 19 3.34 19 3 19 C0.99134292 12.49577707 -0.38614349 6.8218683 0 0 Z " fill="#99999B" transform="translate(166,162)"/>
<path d="M0 0 C0 0.33 0 0.66 0 1 C-1.0725 1.2475 -2.145 1.495 -3.25 1.75 C-7.04890035 3.01630012 -8.60510986 3.86822059 -11 7 C-11.7872678 9.1381966 -11.7872678 9.1381966 -12 11 C-11.34 11.33 -10.68 11.66 -10 12 C-9.01 13.485 -9.01 13.485 -8 15 C-5.89689618 15.40197129 -5.89689618 15.40197129 -3.5625 15.25 C-2.78003906 15.23453125 -1.99757813 15.2190625 -1.19140625 15.203125 C1.17681959 15.0673481 1.17681959 15.0673481 4 14 C4 14.66 4 15.32 4 16 C0.85758446 18.0949437 -2.26677668 18.55318782 -6.0234375 18.43359375 C-8.87211981 17.80868518 -10.55894623 16.27942401 -12.21484375 13.921875 C-13.73348537 10.20460297 -13.31636377 6.72969735 -12 3 C-8.37979327 -0.51373006 -4.86774721 -0.28633807 0 0 Z " fill="#C5C5C5" transform="translate(520,269)"/>
<path d="M0 0 C1.32 0 2.64 0 4 0 C3.88918111 3.52142777 3.75877927 7.04187564 3.625 10.5625 C3.57859375 12.0484668 3.57859375 12.0484668 3.53125 13.56445312 C3.31287503 19.04202523 2.79049861 23.8104654 1 29 C0.67 29 0.34 29 0 29 C0.57844055 19.9910961 1.21285782 10.99351805 2 2 C1.01 2.495 1.01 2.495 0 3 C-2.6723621 3.13415472 -5.32250488 3.04318541 -8 3 C-8 2.67 -8 2.34 -8 2 C-6.865625 1.855625 -5.73125 1.71125 -4.5625 1.5625 C-1.19222799 1.38828522 -1.19222799 1.38828522 0 0 Z " fill="#656666" transform="translate(224,134)"/>
<path d="M0 0 C4.56263819 4.25590621 5.97850382 8.9219431 6.2578125 15.01171875 C6.28743741 16.46595835 6.30554055 17.92047533 6.3125 19.375 C6.31789795 20.08938232 6.3232959 20.80376465 6.32885742 21.53979492 C6.257468 26.742532 6.257468 26.742532 4 29 C3.93941406 27.85660156 3.87882812 26.71320313 3.81640625 25.53515625 C3.73201572 24.04425695 3.64736698 22.55337225 3.5625 21.0625 C3.52318359 20.30775391 3.48386719 19.55300781 3.44335938 18.77539062 C3.55961976 15.08055813 3.55961976 15.08055813 2 12 C1.60430892 9.98688551 1.25747809 7.96402792 0.9375 5.9375 C0.76089844 4.83277344 0.58429688 3.72804688 0.40234375 2.58984375 C0.26957031 1.73519531 0.13679688 0.88054687 0 0 Z " fill="#565658" transform="translate(308,259)"/>
<path d="M0 0 C0.66 0.33 1.32 0.66 2 1 C1.67 1.99 1.34 2.98 1 4 C-7.58 4 -16.16 4 -25 4 C-25 3.34 -25 2.68 -25 2 C-16.75 2 -8.5 2 0 2 C0 1.34 0 0.68 0 0 Z " fill="#D9D9D9" transform="translate(388,186)"/>
<path d="M0 0 C0.66 0 1.32 0 2 0 C2.33 0.99 2.66 1.98 3 3 C1.73742767 4.17560179 0.46462916 5.34022865 -0.8125 6.5 C-1.87404297 7.47453125 -1.87404297 7.47453125 -2.95703125 8.46875 C-5 10 -5 10 -8 10 C-8.33 11.32 -8.66 12.64 -9 14 C-11.31 14.33 -13.62 14.66 -16 15 C-15.0409375 14.5978125 -15.0409375 14.5978125 -14.0625 14.1875 C-11.66868314 13.11332248 -11.66868314 13.11332248 -11 10 C-9.2578125 8.53515625 -9.2578125 8.53515625 -7.125 7.0625 C-4.76174921 5.42740951 -3.09256806 4.12423609 -1.3671875 1.80859375 C-0.91601562 1.21175781 -0.46484375 0.61492187 0 0 Z " fill="#424243" transform="translate(300,311)"/>
<path d="M0 0 C0 4.47661438 -0.2431104 6.18335596 -3.375 9.5625 C-4.674375 10.7690625 -4.674375 10.7690625 -6 12 C-6.495 12.556875 -6.99 13.11375 -7.5 13.6875 C-9 15 -9 15 -11.5625 16 C-14.31238322 16.86272409 -14.31238322 16.86272409 -16 20 C-16.99 19.34 -17.98 18.68 -19 18 C-17.37982158 16.66081194 -15.75370657 15.3288031 -14.125 14 C-13.22007812 13.2575 -12.31515625 12.515 -11.3828125 11.75 C-9 10 -9 10 -7 10 C-7 9.34 -7 8.68 -7 8 C-5.68945377 6.64426252 -4.35251497 5.31387169 -3 4 C-1.97676564 2.68441297 -0.96873032 1.35622245 0 0 Z " fill="#525353" transform="translate(171,307)"/>
<path d="M0 0 C0 0.66 0 1.32 0 2 C-0.99 2 -1.98 2 -3 2 C-3.2475 2.639375 -3.495 3.27875 -3.75 3.9375 C-4.1625 4.618125 -4.575 5.29875 -5 6 C-5.9590625 6.2165625 -5.9590625 6.2165625 -6.9375 6.4375 C-9.98402833 7.26837136 -10.42329139 9.35112953 -12 12 C-14.5 13.625 -14.5 13.625 -17 15 C-18.75149165 16.58245275 -18.75149165 16.58245275 -20 18 C-17.25841081 10.02446782 -10.69151207 5.06816667 -3.6640625 0.8125 C-2 0 -2 0 0 0 Z " fill="#ABABAC" transform="translate(224,233)"/>
<path d="M0 0 C0.99 0.495 0.99 0.495 2 1 C3.84281069 8.00268062 3.60034555 15.97626118 2 23 C1.34 23 0.68 23 0 23 C0 15.41 0 7.82 0 0 Z " fill="#B9B9B9" transform="translate(148,137)"/>
<path d="M0 0 C0.66 0 1.32 0 2 0 C4.30445441 6.76933483 5.38400436 13.29670778 2.5 20.0625 C2.005 21.031875 1.51 22.00125 1 23 C-0.2263757 20.54724859 -0.11415314 18.9494219 -0.09765625 16.2109375 C-0.09443359 15.26992187 -0.09121094 14.32890625 -0.08789062 13.359375 C-0.07951172 12.37453125 -0.07113281 11.3896875 -0.0625 10.375 C-0.05798828 9.38242188 -0.05347656 8.38984375 -0.04882812 7.3671875 C-0.03702145 4.9113984 -0.020554 2.45572896 0 0 Z " fill="#A3A3A3" transform="translate(124,136)"/>
<path d="M0 0 C5.28 0 10.56 0 16 0 C16 1.32 16 2.64 16 4 C5.605 4.495 5.605 4.495 -5 5 C-4.67 4.34 -4.34 3.68 -4 3 C-0.83984375 2.5859375 -0.83984375 2.5859375 3.0625 2.375 C4.35285156 2.30023438 5.64320313 2.22546875 6.97265625 2.1484375 C7.97167969 2.09945312 8.97070312 2.05046875 10 2 C6.7 1.67 3.4 1.34 0 1 C0 0.67 0 0.34 0 0 Z " fill="#DEDEDE" transform="translate(178,102)"/>
<path d="M0 0 C0.66 0.33 1.32 0.66 2 1 C1.67 1.33 1.34 1.66 1 2 C4.63 2.33 8.26 2.66 12 3 C12 3.33 12 3.66 12 4 C11.33613281 4.04898438 10.67226562 4.09796875 9.98828125 4.1484375 C3.2887764 4.71125812 3.2887764 4.71125812 -3 7 C-3 6.34 -3 5.68 -3 5 C-3.66 5 -4.32 5 -5 5 C-5 5.66 -5 6.32 -5 7 C-5.99 7.33 -6.98 7.66 -8 8 C-7.9375 6.25 -7.9375 6.25 -7 4 C-4.74876994 2.27481113 -2.59865097 1.23093993 0 0 Z " fill="#BCBCBC" transform="translate(204,79)"/>
<path d="M0 0 C1 1 1 1 1.0625 4.5625 C1.041875 5.696875 1.02125 6.83125 1 8 C-2.3 8.33 -5.6 8.66 -9 9 C-8.67 8.34 -8.34 7.68 -8 7 C-5.67843403 6.59270772 -3.3431213 6.25561323 -1 6 C-1 4.35 -1 2.7 -1 1 C-1.825 1.33 -2.65 1.66 -3.5 2 C-7.5873983 3.16782809 -10.76923344 3.1458885 -15 3 C-10.46708718 -0.02194188 -5.38432192 -0.31672482 0 0 Z " fill="#4D4D4D" transform="translate(283,23)"/>
<path d="M0 0 C1.32 0 2.64 0 4 0 C4 6.27 4 12.54 4 19 C3.34 19 2.68 19 2 19 C2 13.39 2 7.78 2 2 C0.68 2.33 -0.64 2.66 -2 3 C-1.34 2.01 -0.68 1.02 0 0 Z " fill="#C9C9C9" transform="translate(534,324)"/>
<path d="M0 0 C1.32 0.66 2.64 1.32 4 2 C4 3.32 4 4.64 4 6 C-2.74153283 7.25841946 -9.13484138 8.26404456 -16 8 C-16 7.34 -16 6.68 -16 6 C-8.08 5.505 -8.08 5.505 0 5 C0 3.35 0 1.7 0 0 Z " fill="#A8A8A8" transform="translate(148,186)"/>
<path d="M0 0 C0 0.33 0 0.66 0 1 C-1.6396875 1.4021875 -1.6396875 1.4021875 -3.3125 1.8125 C-7.45655605 2.96919252 -7.45655605 2.96919252 -10 6 C-10.53623095 8.68115473 -10.77574163 11.26404784 -11 14 C-11.66 14 -12.32 14 -13 14 C-13.28331067 10.29177816 -13.42034243 6.70119701 -13 3 C-9.41320785 -0.92305392 -4.97709837 -0.2530728 0 0 Z " fill="#4C4C4C" transform="translate(278,170)"/>
<path d="M0 0 C4 2 4 2 4.75 4.125 C4.8325 4.74375 4.915 5.3625 5 6 C3.68 5.67 2.36 5.34 1 5 C1 12.92 1 20.84 1 29 C0.67 29 0.34 29 0 29 C0 19.43 0 9.86 0 0 Z " fill="#979797" transform="translate(343,159)"/>
<path d="M0 0 C10.23 0.33 20.46 0.66 31 1 C31 1.33 31 1.66 31 2 C30.32420898 2.02505615 29.64841797 2.0501123 28.95214844 2.07592773 C25.8845832 2.19210742 22.81730842 2.31473437 19.75 2.4375 C18.68652344 2.47681641 17.62304688 2.51613281 16.52734375 2.55664062 C14.99013672 2.61948242 14.99013672 2.61948242 13.421875 2.68359375 C12.00793457 2.73858032 12.00793457 2.73858032 10.56542969 2.79467773 C8.03718621 2.92108209 8.03718621 2.92108209 5.80175781 3.57836914 C3.31227655 4.16093474 2.12517265 3.2902834 0 2 C0 1.34 0 0.68 0 0 Z " fill="#4C4C4D" transform="translate(174,187)"/>
<path d="M0 0 C2.10448938 0.14109986 4.2085877 0.28804175 6.3125 0.4375 C7.48425781 0.51871094 8.65601563 0.59992188 9.86328125 0.68359375 C13 1 13 1 16 2 C18.73289293 2.22797562 21.45042204 2.41668187 24.1875 2.5625 C24.93708984 2.60568359 25.68667969 2.64886719 26.45898438 2.69335938 C28.30578375 2.79922685 30.15286834 2.9000976 32 3 C32 3.33 32 3.66 32 4 C10.46808511 4.57446809 10.46808511 4.57446809 0 1 C0 0.67 0 0.34 0 0 Z " fill="#989899" transform="translate(232,329)"/>
<path d="M0 0 C0.33 0.66 0.66 1.32 1 2 C0.33730939 3.66825159 -0.33005782 5.33464728 -1 7 C-1.2759478 8.92903132 -1.48449903 10.8689032 -1.625 12.8125 C-1.69976562 13.78832031 -1.77453125 14.76414062 -1.8515625 15.76953125 C-1.90054688 16.50558594 -1.94953125 17.24164063 -2 18 C-1.34 18 -0.68 18 0 18 C0.66 20.97 1.32 23.94 2 27 C-1.57544989 23.42455011 -2.85709475 21.76319866 -3.265625 16.72265625 C-3.26046875 15.51480469 -3.2553125 14.30695313 -3.25 13.0625 C-3.25515625 11.85722656 -3.2603125 10.65195312 -3.265625 9.41015625 C-2.99540431 5.94099951 -2.56270948 2.56270948 0 0 Z " fill="#585959" transform="translate(102,266)"/>
<path d="M0 0 C1.98 0.66 3.96 1.32 6 2 C6 2.66 6 3.32 6 4 C6.66 4 7.32 4 8 4 C7.67 6.64 7.34 9.28 7 12 C4.03 11.505 4.03 11.505 1 11 C0.67 10.01 0.34 9.02 0 8 C2.475 8.99 2.475 8.99 5 10 C4.67 7.36 4.34 4.72 4 2 C2.68 1.67 1.36 1.34 0 1 C0 0.67 0 0.34 0 0 Z " fill="#888888" transform="translate(344,36)"/>
<path d="M0 0 C2.375 0.3125 2.375 0.3125 5 1 C5.66 1.99 6.32 2.98 7 4 C5.35 4 3.7 4 2 4 C1.67 4.66 1.34 5.32 1 6 C1.33 6.99 1.66 7.98 2 9 C0.68 8.34 -0.64 7.68 -2 7 C-2 3 -2 3 0 0 Z " fill="#626262" transform="translate(365,51)"/>
<path d="M0 0 C0.33 0.99 0.66 1.98 1 3 C-0.4375 5.1875 -0.4375 5.1875 -2 7 C-3.64846769 6.55123384 -5.29373455 6.09069512 -6.9375 5.625 C-7.85402344 5.36976562 -8.77054688 5.11453125 -9.71484375 4.8515625 C-12 4 -12 4 -13 2 C-12.22914063 2.02320312 -11.45828125 2.04640625 -10.6640625 2.0703125 C-9.15972656 2.09738281 -9.15972656 2.09738281 -7.625 2.125 C-6.62726563 2.14820312 -5.62953125 2.17140625 -4.6015625 2.1953125 C-1.83737827 2.27216848 -1.83737827 2.27216848 0 0 Z " fill="#6B6C6B" transform="translate(224,102)"/>
<path d="M0 0 C1.5778125 0.4021875 1.5778125 0.4021875 3.1875 0.8125 C3.1875 1.1425 3.1875 1.4725 3.1875 1.8125 C1.2075 2.1425 -0.7725 2.4725 -2.8125 2.8125 C0.1575 3.3075 0.1575 3.3075 3.1875 3.8125 C3.1875 4.1425 3.1875 4.4725 3.1875 4.8125 C-0.7725 4.8125 -4.7325 4.8125 -8.8125 4.8125 C-4.75096154 -0.23365385 -4.75096154 -0.23365385 0 0 Z " fill="#D1D1D0" transform="translate(212.8125,77.1875)"/>
<path d="M0 0 C0.33 0 0.66 0 1 0 C2 4 3 8 4 12 C4.66 12 5.32 12 6 12 C6.66 14.31 7.32 16.62 8 19 C3.98123662 15.41181841 0.36561783 11.26199656 -0.25 5.76953125 C-0.25 3.84454955 -0.13475504 1.92025926 0 0 Z " fill="#6A6A6C" transform="translate(196,287)"/>
<path d="M0 0 C0 2 0 2 -1.8125 3.875 C-2.534375 4.57625 -3.25625 5.2775 -4 6 C-4.515625 6.7425 -5.03125 7.485 -5.5625 8.25 C-6.036875 8.8275 -6.51125 9.405 -7 10 C-7.99 10 -8.98 10 -10 10 C-8.71596412 5.50587442 -5.23012555 0 0 0 Z " fill="#3F4041" transform="translate(506,259)"/>
<path d="M0 0 C2.64 0.66 5.28 1.32 8 2 C8 2.66 8 3.32 8 4 C14.93 4.495 14.93 4.495 22 5 C22 5.33 22 5.66 22 6 C7.67721113 6.90523244 7.67721113 6.90523244 1.2578125 2.19140625 C0.84273438 1.79824219 0.42765625 1.40507812 0 1 C0 0.67 0 0.34 0 0 Z " fill="#B9B9B9" transform="translate(88,164)"/>
<path d="M0 0 C-0.9590625 0.6496875 -0.9590625 0.6496875 -1.9375 1.3125 C-4.26746003 2.91239177 -4.26746003 2.91239177 -5 6 C-3.35 6 -1.7 6 0 6 C0.33 6.66 0.66 7.32 1 8 C-5.875 7.125 -5.875 7.125 -7 6 C-7.04063832 4.33382885 -7.042721 2.66611905 -7 1 C-4.53721199 -0.231394 -2.7204945 -0.07159196 0 0 Z " fill="#C5C5C5" transform="translate(167,108)"/>
<path d="M0 0 C1.4540625 0.0309375 1.4540625 0.0309375 2.9375 0.0625 C1.6175 0.3925 0.2975 0.7225 -1.0625 1.0625 C-1.0625 1.7225 -1.0625 2.3825 -1.0625 3.0625 C-3.81328884 3.97942961 -5.42198913 4.17136083 -8.25 4.125 C-10.1371875 4.0940625 -10.1371875 4.0940625 -12.0625 4.0625 C-11.7325 3.4025 -11.4025 2.7425 -11.0625 2.0625 C-8.73534 1.68849214 -6.40132138 1.35485267 -4.0625 1.0625 C-3.0625 0.0625 -3.0625 0.0625 0 0 Z " fill="#B7B7B8" transform="translate(540.0625,386.9375)"/>
<path d="M0 0 C0.20625 0.639375 0.4125 1.27875 0.625 1.9375 C1.89538209 4.34925077 1.89538209 4.34925077 5.125 4.75 C6.07375 4.8325 7.0225 4.915 8 5 C8 5.66 8 6.32 8 7 C9.32 7.66 10.64 8.32 12 9 C8.98509443 9 7.13135886 8.48047265 4.3125 7.5 C3.50425781 7.2215625 2.69601562 6.943125 1.86328125 6.65625 C0.94095703 6.33140625 0.94095703 6.33140625 0 6 C0 4.02 0 2.04 0 0 Z " fill="#919192" transform="translate(604,204)"/>
<path d="M0 0 C2.88749784 1.44374892 3.3475201 3.41368961 4.6875 6.3125 C5.14511719 7.27800781 5.60273438 8.24351562 6.07421875 9.23828125 C7.03310018 12.09874188 7.08069919 13.24257963 6 16 C5.18082358 14.27398621 4.36993984 12.5440353 3.5625 10.8125 C3.11003906 9.84957031 2.65757812 8.88664063 2.19140625 7.89453125 C1.09618578 5.23368414 0.45045204 2.83215245 0 0 Z " fill="#878787" transform="translate(296,136)"/>
<path d="M0 0 C0 0.66 0 1.32 0 2 C-0.66 2 -1.32 2 -2 2 C-2 2.66 -2 3.32 -2 4 C-5.73567172 4.76411467 -8.34811918 5.07174763 -12 4 C-10.3767313 3.3291288 -8.75132422 2.66342971 -7.125 2 C-6.22007812 1.62875 -5.31515625 1.2575 -4.3828125 0.875 C-2 0 -2 0 0 0 Z " fill="#404041" transform="translate(284,326)"/>
<path d="M0 0 C0 0.66 0 1.32 0 2 C-0.99 2 -1.98 2 -3 2 C-3.185625 2.61875 -3.37125 3.2375 -3.5625 3.875 C-5.71437233 7.05602866 -8.37533763 7.19451947 -12 8 C-4.43243243 0 -4.43243243 0 0 0 Z " fill="#B6B7B7" transform="translate(224,233)"/>
<path d="M0 0 C0 0.66 0 1.32 0 2 C-1.28788008 2.53012738 -2.58046678 3.0488329 -3.875 3.5625 C-4.95394531 3.99755859 -4.95394531 3.99755859 -6.0546875 4.44140625 C-8 5 -8 5 -10 4 C-9.67 3.67 -9.34 3.34 -9 3 C-9.66 2.34 -10.32 1.68 -11 1 C-7.26513121 0.4254048 -3.78706732 0 0 0 Z " fill="#363636" transform="translate(216,187)"/>
<path d="M0 0 C2 2 2 2 2.265625 4.3125 C2.25789062 5.6428125 2.25789062 5.6428125 2.25 7 C2.25515625 7.886875 2.2603125 8.77375 2.265625 9.6875 C2 12 2 12 0 14 C-0.94238698 11.17283905 -1.13465647 9.36823877 -1.125 6.4375 C-1.12757813 5.65246094 -1.13015625 4.86742188 -1.1328125 4.05859375 C-1 2 -1 2 0 0 Z " fill="#A3A3A3" transform="translate(225,90)"/>
<path d="M0 0 C0 0.33 0 0.66 0 1 C-2.10320063 1.50404808 -4.20759791 2.00310508 -6.3125 2.5 C-8.07013672 2.91765625 -8.07013672 2.91765625 -9.86328125 3.34375 C-13 4 -13 4 -16 4 C-10.77531236 -0.39973696 -6.69286912 -0.47617251 0 0 Z " fill="#444444" transform="translate(216,83)"/>
<path d="M0 0 C0.33 0 0.66 0 1 0 C1 1.98 1 3.96 1 6 C-3.51718381 7.36884358 -6.58774263 6.47075246 -11 5 C-11 4.67 -11 4.34 -11 4 C-7.7 4 -4.4 4 -1 4 C-0.67 2.68 -0.34 1.36 0 0 Z " fill="#4C4C4C" transform="translate(318,26)"/>
<path d="M0 0 C5.875 1.875 5.875 1.875 7 3 C8.51469448 3.23192865 10.03754562 3.41215238 11.5625 3.5625 C12.38878906 3.64628906 13.21507812 3.73007812 14.06640625 3.81640625 C14.70449219 3.87699219 15.34257812 3.93757813 16 4 C16 4.33 16 4.66 16 5 C11.96067147 5.28580155 8.02994957 5.45551292 4 5 C1.25 2.5 1.25 2.5 0 0 Z " fill="#454648" transform="translate(440,346)"/>
<path d="M0 0 C0.66 0.33 1.32 0.66 2 1 C0.14332089 5.42066456 -1.81259023 9.72934283 -4 14 C-5.06528748 11.26980214 -5.07998186 10.20701188 -4.00390625 7.421875 C-3.52824219 6.54015625 -3.05257812 5.6584375 -2.5625 4.75 C-2.08941406 3.85796875 -1.61632812 2.9659375 -1.12890625 2.046875 C-0.75636719 1.37140625 -0.38382812 0.6959375 0 0 Z " fill="#828282" transform="translate(66,124)"/>
<path d="M0 0 C0.99 0.33 1.98 0.66 3 1 C2.34 2.98 1.68 4.96 1 7 C0.01 6.67 -0.98 6.34 -2 6 C-2 4.35 -2 2.7 -2 1 C-1.34 0.67 -0.68 0.34 0 0 Z " fill="#5F5F5F" transform="translate(158,108)"/>
<path d="M0 0 C5.28 0 10.56 0 16 0 C16 0.99 16 1.98 16 3 C14.68 3 13.36 3 12 3 C12 2.34 12 1.68 12 1 C8.04 1 4.08 1 0 1 C0 0.67 0 0.34 0 0 Z " fill="#6B6B6B" transform="translate(192,76)"/>
<path d="M0 0 C1.8871875 0.061875 1.8871875 0.061875 3.8125 0.125 C3.8125 0.455 3.8125 0.785 3.8125 1.125 C1.5025 1.125 -0.8075 1.125 -3.1875 1.125 C-3.455625 1.764375 -3.72375 2.40375 -4 3.0625 C-5.1875 5.125 -5.1875 5.125 -8.1875 6.125 C-7.875 4.25 -7.875 4.25 -7.1875 2.125 C-4.09861478 0.06574319 -3.47814073 -0.1140374 0 0 Z " fill="#C2C2C2" transform="translate(120.1875,268.875)"/>
<path d="M0 0 C2.64 0 5.28 0 8 0 C8 0.66 8 1.32 8 2 C9.32 2 10.64 2 12 2 C11.67 2.99 11.34 3.98 11 5 C3.57142857 1.85714286 3.57142857 1.85714286 0 0 Z " fill="#404041" transform="translate(408,226)"/>
<path d="M0 0 C1.98 0.495 1.98 0.495 4 1 C4.33 2.32 4.66 3.64 5 5 C2 6 2 6 -1 5 C-0.34 5 0.32 5 1 5 C0.67 3.35 0.34 1.7 0 0 Z " fill="#595959" transform="translate(229,108)"/>
<path d="M0 0 C1 4 1 4 -0.25 6.75 C-0.8275 7.4925 -1.405 8.235 -2 9 C-2.99 9 -3.98 9 -5 9 C-3.35 6.03 -1.7 3.06 0 0 Z " fill="#343536" transform="translate(307,301)"/>
<path d="M0 0 C-1.61992165 0.86375896 -3.24611861 1.71575854 -4.875 2.5625 C-6.23238281 3.27599609 -6.23238281 3.27599609 -7.6171875 4.00390625 C-8.40351563 4.33261719 -9.18984375 4.66132813 -10 5 C-10.66 4.67 -11.32 4.34 -12 4 C-8.71298741 1.21868166 -4.24676932 -2.12338466 0 0 Z " fill="#9D9D9E" transform="translate(488,231)"/>
<path d="M0 0 C0.66 0 1.32 0 2 0 C1.34 3.3 0.68 6.6 0 10 C-0.66 10 -1.32 10 -2 10 C-2.22036864 6.14354879 -1.60355101 3.50776784 0 0 Z " fill="#999999" transform="translate(258,116)"/>
<path d="M0 0 C6.75 -0.125 6.75 -0.125 9 1 C9 1.66 9 2.32 9 3 C5.7 2.67 2.4 2.34 -1 2 C-0.67 1.34 -0.34 0.68 0 0 Z " fill="#F9F9F9" transform="translate(210,79)"/>
<path d="M0 0 C1.14926266 0.95421808 2.29430541 1.91352045 3.4375 2.875 C4.07558594 3.40867187 4.71367187 3.94234375 5.37109375 4.4921875 C7 6 7 6 8 8 C5.125 7.375 5.125 7.375 2 6 C0.625 2.875 0.625 2.875 0 0 Z " fill="#9E9E9F" transform="translate(20,395)"/>
<path d="M0 0 C0.33 0 0.66 0 1 0 C1.36923077 7.50769231 1.36923077 7.50769231 -0.5 10 C-0.995 10.33 -1.49 10.66 -2 11 C-1.125 3.375 -1.125 3.375 0 0 Z " fill="#68696A" transform="translate(574,348)"/>
<path d="M0 0 C0 0.99 0 1.98 0 3 C-4.455 3.495 -4.455 3.495 -9 4 C-6.10130984 1.70103884 -3.84906588 0 0 0 Z " fill="#9D9E9D" transform="translate(228,131)"/>
<path d="M0 0 C0.66 0 1.32 0 2 0 C1.50168276 3.68754757 0.89932357 5.60490662 -2 8 C-2.33 6.35 -2.66 4.7 -3 3 C-2.01 2.67 -1.02 2.34 0 2 C0 1.34 0 0.68 0 0 Z " fill="#EBEBEB" transform="translate(199,84)"/>
<path d="M0 0 C4.95 0.99 4.95 0.99 10 2 C10 2.33 10 2.66 10 3 C7.03 3 4.06 3 1 3 C0.67 2.01 0.34 1.02 0 0 Z " fill="#212222" transform="translate(238,331)"/>
<path d="M0 0 C0 0.99 0 1.98 0 3 C-0.66 3 -1.32 3 -2 3 C-2.66 4.32 -3.32 5.64 -4 7 C-4.6875 5.1875 -4.6875 5.1875 -5 3 C-3.38441968 0.84589291 -2.74502455 0 0 0 Z " fill="#37383A" transform="translate(464,249)"/>
<path d="M0 0 C0.77321882 2.98241547 1.41196203 5.97580475 2 9 C0.68 8.01 -0.64 7.02 -2 6 C-1.125 1.125 -1.125 1.125 0 0 Z " fill="#CDCDCD" transform="translate(142,172)"/>
<path d="M0 0 C0.66 0 1.32 0 2 0 C2 1.65 2 3.3 2 5 C2.99 5.33 3.98 5.66 5 6 C3.68 6 2.36 6 1 6 C0.34 4.35 -0.32 2.7 -1 1 C-0.67 0.67 -0.34 0.34 0 0 Z " fill="#313131" transform="translate(236,43)"/>
</svg>
